<svg xmlns="http://www.w3.org/2000/svg" xmlns:xlink="http://www.w3.org/1999/xlink" viewBox="0 0 301.45 267.31"><defs><style>.cls-1,.cls-5{fill:none;}.cls-2{fill:#0d0026;}.cls-3{fill:#e848ff;}.cls-4{isolation:isolate;}.cls-5,.cls-51{stroke:#a1e79f;stroke-miterlimit:10;}.cls-5{stroke-dasharray:2;}.cls-6{mix-blend-mode:multiply;fill:url(#radial-gradient);}.cls-7{fill:#183352;}.cls-8{mix-blend-mode:screen;}.cls-9{clip-path:url(#clip-path);}.cls-10{fill:#121212;}.cls-11{fill:#111;}.cls-12{clip-path:url(#clip-path-2);}.cls-13{fill:#391360;}.cls-14{fill:#37125d;}.cls-15{fill:#35125a;}.cls-16{fill:#341158;}.cls-17{fill:#321155;}.cls-18{fill:#311052;}.cls-19{fill:#2f104f;}.cls-20{fill:#0d0d0d;}.cls-21{fill:#131313;}.cls-22{clip-path:url(#clip-path-3);}.cls-23{fill:#101010;}.cls-24{fill:#171717;}.cls-25{clip-path:url(#clip-path-4);}.cls-26{fill:#0e0e0e;}.cls-27{fill:#0f0f0f;}.cls-28{clip-path:url(#clip-path-5);}.cls-29{clip-path:url(#clip-path-6);}.cls-30{fill:#141414;}.cls-31{fill:#151515;}.cls-32{fill:#161616;}.cls-33{fill:#bababa;}.cls-34{clip-path:url(#clip-path-7);}.cls-35{clip-path:url(#clip-path-8);}.cls-36{clip-path:url(#clip-path-9);}.cls-37{clip-path:url(#clip-path-10);}.cls-38{clip-path:url(#clip-path-11);}.cls-39{fill:#3a1363;}.cls-40{clip-path:url(#clip-path-12);}.cls-41{fill:#2a0e47;}.cls-42{clip-path:url(#clip-path-13);}.cls-43,.cls-51{fill:#a1e79f;}.cls-44{fill:#3e156a;}.cls-45{fill:#2b0e49;}.cls-46{clip-path:url(#clip-path-14);}.cls-47{fill:#2d0f4d;}.cls-48{fill:#2c0f4a;}.cls-49{clip-path:url(#clip-path-15);}.cls-50{clip-path:url(#clip-path-16);}.cls-52,.cls-56{fill:#fff;}.cls-53{clip-path:url(#clip-path-17);}.cls-54{fill:#9ca59d;}.cls-55{clip-path:url(#clip-path-18);}.cls-56{font-size:7.5px;font-family:Montserrat-BlackItalic, Montserrat;font-weight:800;font-style:italic;letter-spacing:0.4em;}.cls-57{letter-spacing:0.39em;}</style><radialGradient id="radial-gradient" cx="-239.87" cy="525.44" r="75.04" gradientTransform="matrix(0.87, -0.5, 0.86, 0.5, -130.39, -192.41)" gradientUnits="userSpaceOnUse"><stop offset="0" stop-color="#15195b"/><stop offset="0.03" stop-color="#202362"/><stop offset="0.24" stop-color="#636591"/><stop offset="0.43" stop-color="#9a9cb8"/><stop offset="0.61" stop-color="#c6c7d7"/><stop offset="0.77" stop-color="#e5e6ed"/><stop offset="0.91" stop-color="#f8f8fa"/><stop offset="1" stop-color="#fff"/></radialGradient><clipPath id="clip-path" transform="translate(52.06 24.48)"><path class="cls-1" d="M159.58,7.94a9.74,9.74,0,0,0-1,.66l0-7.94a10.26,10.26,0,0,1,1-.66C159.61,2.38,159.59,5.56,159.58,7.94Z"/></clipPath><clipPath id="clip-path-2" transform="translate(52.06 24.48)"><path class="cls-1" d="M156.91,11.4l0-7.95A3.57,3.57,0,0,1,158.58.66l0,7.94A3.61,3.61,0,0,0,156.91,11.4Z"/></clipPath><clipPath id="clip-path-3" transform="translate(52.06 24.48)"><path class="cls-1" d="M156.91,11.4l0-7.95c0,1.2.78,2.4,2.36,3.32l0,7.94C157.7,13.79,156.91,12.59,156.91,11.4Z"/></clipPath><clipPath id="clip-path-4" transform="translate(52.06 24.48)"><path class="cls-1" d="M179.53,21.33a1.47,1.47,0,0,0-1.34,0c0-2.65,0-5.29,0-7.94a1.48,1.48,0,0,1,1.33,0h0l0,7.95Z"/></clipPath><clipPath id="clip-path-5" transform="translate(52.06 24.48)"><path class="cls-1" d="M179.63,21.39l0-7.94a.43.43,0,0,1,.18.33l0,7.94A.44.44,0,0,0,179.63,21.39Z"/></clipPath><clipPath id="clip-path-6" transform="translate(52.06 24.48)"><path class="cls-1" d="M179.84,13.78l0,7.94a.47.47,0,0,1-.27.38,1.5,1.5,0,0,1-1.34,0,.47.47,0,0,1-.28-.4l0-7.94a.46.46,0,0,0,.28.39,1.47,1.47,0,0,0,1.34,0A.48.48,0,0,0,179.84,13.78Z"/></clipPath><clipPath id="clip-path-7" transform="translate(52.06 24.48)"><path class="cls-1" d="M187.4,16.47l0,8c-.26.14-.52.28-.8.4A12.61,12.61,0,0,1,176,24.4l0-7.94a12.69,12.69,0,0,0,10.55.42A7.53,7.53,0,0,0,187.4,16.47Z"/></clipPath><clipPath id="clip-path-8" transform="translate(52.06 24.48)"><path class="cls-1" d="M201.54,29.29l0,7.94c0-2.32-1.51-4.64-4.57-6.41l0-7.94C200,24.65,201.54,27,201.54,29.29Z"/></clipPath><clipPath id="clip-path-9" transform="translate(52.06 24.48)"><path class="cls-1" d="M201.45,37.93l0-7.94a5.51,5.51,0,0,0,.06-.71l0,7.95A5.49,5.49,0,0,1,201.45,37.93Z"/></clipPath><clipPath id="clip-path-10" transform="translate(52.06 24.48)"><path class="cls-1" d="M201.45,37.93a6,6,0,0,1-1.07,2.63q0-4,0-7.94A6.1,6.1,0,0,0,201.48,30q0,3.11,0,6.2v1.1C201.45,37.51,201.47,37.72,201.45,37.93Z"/></clipPath><clipPath id="clip-path-11" transform="translate(52.06 24.48)"><path class="cls-1" d="M200.38,40.56a10.46,10.46,0,0,1-3.39,3l0-8a10.37,10.37,0,0,0,3.4-3Q200.41,36.58,200.38,40.56Z"/></clipPath><clipPath id="clip-path-12" transform="translate(52.06 24.48)"><path class="cls-1" d="M8.7,83.43c-3-1.77-4.58-4.09-4.57-6.4l0-8c0,2.32,1.52,4.64,4.57,6.41C8.72,77.87,8.71,81.05,8.7,83.43Z"/></clipPath><clipPath id="clip-path-13" transform="translate(52.06 24.48)"><path class="cls-2" d="M0,77.28l0-7.94c0,3,2,6.12,6.05,8.46l0,7.94C2,83.4,0,80.34,0,77.28Z"/></clipPath><clipPath id="clip-path-14" transform="translate(52.06 24.48)"><path class="cls-1" d="M79.41,103.73l0,8c-6,3.5-15.87,3.49-21.94,0l0-7.94C63.54,107.22,73.37,107.24,79.41,103.73Z"/></clipPath><clipPath id="clip-path-15" transform="translate(52.06 24.48)"><path class="cls-2" d="M205.66,29l0,7.94c0,3-2,6-6,8.34l0-7.94C203.66,35.07,205.65,32.05,205.66,29Z"/></clipPath><clipPath id="clip-path-16" transform="translate(52.06 24.48)"><path class="cls-2" d="M82.48,105.28l0,8c-8,4.63-21,4.61-29,0l0-7.94C61.5,109.89,74.49,109.91,82.48,105.28Z"/></clipPath><clipPath id="clip-path-17" transform="translate(52.06 24.48)"><path class="cls-3" d="M27.93,63.14V61.23a2.88,2.88,0,0,0,1.71,2.39v1.91A2.9,2.9,0,0,1,27.93,63.14Z"/></clipPath><clipPath id="clip-path-18" transform="translate(52.06 24.48)"><path class="cls-3" d="M85.57,87.83v1.91a2.9,2.9,0,0,1-1.69,2.36,9,9,0,0,1-8.21,0V90.19a9,9,0,0,0,8.21,0A2.86,2.86,0,0,0,85.57,87.83Z"/></clipPath></defs><title>Asset 3</title><g class="cls-4"><g id="Layer_2" data-name="Layer 2"><g id="OBJECTS"><line class="cls-5" x1="51.36" y1="258.99" x2="177.71" y2="185.62"/><line class="cls-5" x1="174.84" y1="187.04" x2="301.2" y2="113.67"/><line class="cls-5" x1="161.65" y1="90.42" x2="288.01" y2="17.04"/><line class="cls-5" x1="18.1" y1="172.37" x2="119.18" y2="113.67"/><line class="cls-5" x1="40.82" y1="75.94" x2="170.85" y2="0.43"/><line class="cls-5" x1="196.49" y1="99.84" x2="259.77" y2="136.55"/><line class="cls-5" x1="71.77" y1="21.23" x2="135.04" y2="57.93"/><line class="cls-5" x1="0.25" y1="110.22" x2="63.53" y2="146.93"/><line class="cls-5" x1="103.41" y1="228.44" x2="154.02" y2="257.8"/><line class="cls-5" x1="219.19" y1="206.54" x2="282.46" y2="243.24"/><ellipse class="cls-6" cx="112.01" cy="189.93" rx="91.62" ry="52.9" transform="translate(51.03 25.09) rotate(-0.31)"/><ellipse class="cls-7" cx="114.52" cy="160.35" rx="57.78" ry="33.36" transform="translate(51.19 25.1) rotate(-0.31)"/><g class="cls-8"><path class="cls-7" d="M172.3,58.09V152.3c-.08,8.5-5.76,17-17,23.51C132.63,188.87,96,189,73.54,176c-11.27-6.51-16.87-15.07-16.79-23.65v-94A18.25,18.25,0,0,1,57.26,54c1.58-7.08,7.1-13.94,16.53-19.39C96.42,21.51,133,21.44,155.5,34.43,166.8,40.94,172.4,49.52,172.3,58.09Z" transform="translate(52.06 24.48)"/></g><g class="cls-4"><g class="cls-4"><g class="cls-9"><g class="cls-4"><path class="cls-10" d="M159.62,0l0,7.94-.4.24,0-7.94.4-.24" transform="translate(52.06 24.48)"/><path class="cls-11" d="M159.22.24l0,7.94a7.46,7.46,0,0,0-.63.42l0-7.94a5.94,5.94,0,0,1,.64-.42" transform="translate(52.06 24.48)"/></g></g></g><g class="cls-4"><g class="cls-12"><g class="cls-4"><path class="cls-13" d="M158.58.66l0,7.94a4.87,4.87,0,0,0-.42.35l0-7.95c.13-.11.27-.23.42-.34" transform="translate(52.06 24.48)"/><path class="cls-14" d="M158.16,1l0,8a4.93,4.93,0,0,0-.5.53l0-7.94a6,6,0,0,1,.49-.54" transform="translate(52.06 24.48)"/><path class="cls-15" d="M157.67,1.54l0,7.94a4.45,4.45,0,0,0-.32.48l0-7.94a3.73,3.73,0,0,1,.33-.48" transform="translate(52.06 24.48)"/><path class="cls-16" d="M157.34,2l0,7.94a3.82,3.82,0,0,0-.21.46l0-7.95a4.54,4.54,0,0,1,.21-.45" transform="translate(52.06 24.48)"/><path class="cls-17" d="M157.13,2.47l0,8a2.13,2.13,0,0,0-.13.45l0-7.95a2.54,2.54,0,0,1,.13-.45" transform="translate(52.06 24.48)"/><path class="cls-18" d="M157,2.92l0,8a3.4,3.4,0,0,0-.06.46l0-7.95a2.49,2.49,0,0,1,.05-.46" transform="translate(52.06 24.48)"/><path class="cls-19" d="M157,3.38l0,8v.07l0-7.95V3.38" transform="translate(52.06 24.48)"/></g></g></g><polygon class="cls-20" points="239.46 40.95 239.42 48.89 211.64 32.42 211.67 24.48 239.46 40.95"/><polygon class="cls-21" points="215.82 28.94 215.79 36.88 214.85 37.42 214.88 29.48 215.82 28.94"/><g class="cls-4"><g class="cls-22"><g class="cls-4"><path class="cls-20" d="M159.31,6.77l0,7.94c-1.58-.92-2.37-2.12-2.37-3.31l0-7.95c0,1.2.78,2.4,2.36,3.32" transform="translate(52.06 24.48)"/></g></g></g><polygon class="cls-20" points="227.46 35.67 227.43 43.62 215.79 36.88 215.82 28.94 227.46 35.67"/><polygon class="cls-23" points="226.52 36.22 226.49 44.16 214.85 37.42 214.88 29.48 226.52 36.22"/><polygon class="cls-24" points="227.46 35.67 227.43 43.62 226.49 44.16 226.52 36.22 227.46 35.67"/><g class="cls-4"><g class="cls-25"><g class="cls-4"><path class="cls-20" d="M179.84,13.78l0,7.94a.46.46,0,0,0-.28-.39l-.14-.07,0-7.94.14.06a.47.47,0,0,1,.28.4" transform="translate(52.06 24.48)"/><path class="cls-26" d="M179.42,13.32l0,7.94-.11,0,0-7.94.11,0" transform="translate(52.06 24.48)"/><path class="cls-26" d="M179.31,13.28l0,7.94-.1,0,0-7.95.1,0" transform="translate(52.06 24.48)"/><path class="cls-27" d="M179.21,13.25l0,8-.1,0,0-7.94h.1" transform="translate(52.06 24.48)"/><path class="cls-27" d="M179.11,13.24l0,7.94H179l0-7.94h.09" transform="translate(52.06 24.48)"/><path class="cls-23" d="M179,13.23l0,7.94h-.1l0-7.94H179" transform="translate(52.06 24.48)"/><path class="cls-23" d="M178.93,13.22l0,7.94h-.09l0-7.94h.1" transform="translate(52.06 24.48)"/><path class="cls-11" d="M178.83,13.22l0,7.94h-.11l0-7.94h.11" transform="translate(52.06 24.48)"/><path class="cls-11" d="M178.72,13.23l0,7.94-.12,0,0-7.94.12,0" transform="translate(52.06 24.48)"/><path class="cls-11" d="M178.6,13.25l0,7.94-.17,0,0-7.94.17,0" transform="translate(52.06 24.48)"/><path class="cls-10" d="M178.43,13.29l0,7.94a1.33,1.33,0,0,0-.21.09h0l0-7.95h0a.72.72,0,0,1,.2-.09" transform="translate(52.06 24.48)"/></g></g></g><g class="cls-4"><g class="cls-28"><g class="cls-4"><path class="cls-20" d="M179.84,13.78l0,7.94a.46.46,0,0,0-.28-.39l-.14-.07,0-7.94.14.06a.47.47,0,0,1,.28.4" transform="translate(52.06 24.48)"/></g></g></g><g class="cls-4"><g class="cls-29"><g class="cls-4"><polyline class="cls-11" points="231.9 38.25 231.87 46.19 231.87 46.2 231.9 38.26 231.9 38.25"/><path class="cls-10" d="M179.84,13.78l0,8a.11.11,0,0,1,0,.05l0-7.94a.13.13,0,0,0,0-.06" transform="translate(52.06 24.48)"/><path class="cls-21" d="M179.83,13.84l0,7.94a.43.43,0,0,1,0,0l0-7.94a.11.11,0,0,0,0-.05" transform="translate(52.06 24.48)"/><path class="cls-21" d="M179.82,13.89l0,7.94,0,.06,0-8,0,0" transform="translate(52.06 24.48)"/><path class="cls-30" d="M179.79,13.94l0,8,0,.05,0-7.94,0-.06" transform="translate(52.06 24.48)"/><path class="cls-30" d="M179.76,14l0,7.94-.05.06,0-7.94.06-.06" transform="translate(52.06 24.48)"/><path class="cls-31" d="M179.7,14.06l0,7.94-.12.09,0-7.94.12-.09" transform="translate(52.06 24.48)"/><path class="cls-32" d="M179.58,14.15l0,7.94h0a1.89,1.89,0,0,1-.21.09l0-7.94.21-.09h0" transform="translate(52.06 24.48)"/><path class="cls-31" d="M179.36,14.25l0,7.94-.18,0,0-7.94.18,0" transform="translate(52.06 24.48)"/><path class="cls-30" d="M179.18,14.29l0,7.94-.12,0,0-7.94.12,0" transform="translate(52.06 24.48)"/><path class="cls-30" d="M179.06,14.31l0,7.94h-.11l0-7.94h.1" transform="translate(52.06 24.48)"/><path class="cls-21" d="M179,14.32l0,7.94h-.09l0-7.94h.1" transform="translate(52.06 24.48)"/><path class="cls-21" d="M178.86,14.32l0,7.94h-.1l0-7.94h.09" transform="translate(52.06 24.48)"/><path class="cls-10" d="M178.77,14.31l0,7.94h-.09l0-7.94h.09" transform="translate(52.06 24.48)"/><path class="cls-11" d="M178.68,14.3l0,7.94h-.09l0-8,.1,0" transform="translate(52.06 24.48)"/><path class="cls-11" d="M178.58,14.28l0,8-.1,0,0-7.94.1,0" transform="translate(52.06 24.48)"/><path class="cls-23" d="M178.48,14.26l0,7.94-.11,0,0-7.94.11,0" transform="translate(52.06 24.48)"/><path class="cls-23" d="M178.37,14.22l0,7.94-.14-.06a.47.47,0,0,1-.28-.4l0-7.94a.46.46,0,0,0,.28.39l.14.07" transform="translate(52.06 24.48)"/></g></g></g><path class="cls-33" d="M159.62,0l28.11,16.28-.33.19a7.53,7.53,0,0,1-.8.41,12.69,12.69,0,0,1-10.55-.42L159.31,6.77c-2.88-1.67-3.13-4.29-.73-6.11.22-.16.45-.32.7-.47Zm14.84,11.74.94-.54L163.76,4.46l-.94.54,11.64,6.74m3.77,2.41a1.47,1.47,0,0,0,1.34,0,.41.41,0,0,0,0-.78,1.48,1.48,0,0,0-1.33,0,.41.41,0,0,0,0,.77" transform="translate(52.06 24.48)"/><path class="cls-7" d="M179.56,13.38a.41.41,0,0,1,0,.78,1.47,1.47,0,0,1-1.34,0,.41.41,0,0,1,0-.77A1.48,1.48,0,0,1,179.56,13.38Z" transform="translate(52.06 24.48)"/><polygon class="cls-21" points="239.79 40.76 239.76 48.7 239.42 48.89 239.46 40.95 239.79 40.76"/><polygon class="cls-20" points="228.11 40.94 228.08 48.88 211.34 39.19 211.37 31.24 228.11 40.94"/><g class="cls-4"><g class="cls-34"><g class="cls-4"><path class="cls-10" d="M187.4,16.47l0,8c-.26.14-.52.28-.8.4a9.86,9.86,0,0,1-1,.38l0-7.94a9.86,9.86,0,0,0,1-.38,7.53,7.53,0,0,0,.8-.41" transform="translate(52.06 24.48)"/><path class="cls-11" d="M185.6,17.26l0,7.94a13.52,13.52,0,0,1-1.49.37l0-7.95a11.42,11.42,0,0,0,1.48-.36" transform="translate(52.06 24.48)"/><path class="cls-11" d="M184.12,17.62l0,8c-.33.06-.67.1-1,.14l0-7.95c.35,0,.69-.08,1-.14" transform="translate(52.06 24.48)"/><path class="cls-11" d="M183.09,17.76l0,8c-.29,0-.59.05-.89.06l0-7.95c.3,0,.6,0,.89-.06" transform="translate(52.06 24.48)"/><path class="cls-23" d="M182.2,17.82l0,8c-.27,0-.55,0-.82,0l0-7.94h.82" transform="translate(52.06 24.48)"/><path class="cls-23" d="M181.38,17.83l0,7.94c-.26,0-.53,0-.79-.05l0-7.94.78,0" transform="translate(52.06 24.48)"/><path class="cls-27" d="M180.6,17.78l0,7.94-.78-.08,0-7.95q.38.06.78.09" transform="translate(52.06 24.48)"/><path class="cls-27" d="M179.82,17.69l0,8L179,25.5l0-7.94c.26.05.52.1.79.13" transform="translate(52.06 24.48)"/><path class="cls-26" d="M179,17.56l0,7.94q-.42-.09-.84-.21l0-7.94c.28.08.56.15.85.21" transform="translate(52.06 24.48)"/><path class="cls-26" d="M178.18,17.35l0,7.94c-.33-.1-.66-.21-1-.33l0-7.94c.31.12.64.23,1,.33" transform="translate(52.06 24.48)"/><path class="cls-20" d="M177.21,17l0,7.94A8.29,8.29,0,0,1,176,24.4l0-7.94a8.29,8.29,0,0,0,1.16.56" transform="translate(52.06 24.48)"/></g></g></g><polygon class="cls-20" points="249.02 47.36 248.99 55.3 238.63 49.3 238.66 41.36 249.02 47.36"/><g class="cls-4"><g class="cls-35"><g class="cls-4"><path class="cls-20" d="M201.54,29.29l0,7.94c0-2.32-1.51-4.64-4.57-6.41l0-7.94c3.06,1.77,4.58,4.09,4.58,6.41" transform="translate(52.06 24.48)"/></g></g></g><g class="cls-4"><g class="cls-36"><g class="cls-4"><path class="cls-19" d="M201.54,29.29l0,7.94v.13l0-7.94a.57.57,0,0,1,0-.13" transform="translate(52.06 24.48)"/><path class="cls-18" d="M201.53,29.42l0,7.94a5.27,5.27,0,0,1-.1.89l0-7.94a5.27,5.27,0,0,0,.1-.89" transform="translate(52.06 24.48)"/></g></g></g><g class="cls-4"><g class="cls-37"><g class="cls-4"><path class="cls-18" d="M201.53,29.42l0,7.94a5.27,5.27,0,0,1-.1.89l0-7.94a5.27,5.27,0,0,0,.1-.89" transform="translate(52.06 24.48)"/><path class="cls-17" d="M201.43,30.31l0,7.94a6.78,6.78,0,0,1-.25.88l0-8a5.38,5.38,0,0,0,.25-.87" transform="translate(52.06 24.48)"/><path class="cls-16" d="M201.18,31.18l0,8a7,7,0,0,1-.42.88l0-7.94a5.53,5.53,0,0,0,.42-.89" transform="translate(52.06 24.48)"/><path class="cls-15" d="M200.76,32.07l0,7.94a7.42,7.42,0,0,1-.62.92l0-7.94a6.46,6.46,0,0,0,.62-.92" transform="translate(52.06 24.48)"/></g></g></g><g class="cls-4"><g class="cls-38"><g class="cls-4"><path class="cls-15" d="M200.76,32.07l0,7.94a7.42,7.42,0,0,1-.62.92l0-7.94a6.46,6.46,0,0,0,.62-.92" transform="translate(52.06 24.48)"/><path class="cls-14" d="M200.14,33l0,7.94a8.49,8.49,0,0,1-1,1l0-7.95a9.17,9.17,0,0,0,1-1" transform="translate(52.06 24.48)"/><path class="cls-13" d="M199.18,34l0,7.95a12.46,12.46,0,0,1-2,1.45l0-8a12,12,0,0,0,2-1.45" transform="translate(52.06 24.48)"/><path class="cls-39" d="M197.21,35.47l0,8-.19.11,0-8a1.18,1.18,0,0,0,.19-.11" transform="translate(52.06 24.48)"/></g></g></g><g class="cls-4"><path class="cls-33" d="M148.23-5.34q-.55-.31-1.14-.6l-.4-.17-.7-.31a.32.32,0,0,1-.09,0c-.53-.21-1.09-.39-1.66-.56l-.13,0-.4-.09-1-.24a2.44,2.44,0,0,0-.26-.06l-.39-.07-.82-.15-.33,0-.36,0q-.39-.06-.78-.09l-.37,0-.34,0-.79,0-.4,0h-1.16c-.14,0-.28,0-.43,0h-.24L135-7.89l-.43,0-.12,0q-.9.09-1.77.24h-.08l-.5.11c-.29.06-.58.11-.86.18l-.61.16-.8.23-.17,0-.27.1c-.42.14-.83.3-1.22.46l-.44.19c-.51.23-1,.47-1.47.74L8.68,62.78a1.18,1.18,0,0,0-.19.11l-.4.27c-.19.12-.38.24-.56.37l-.43.34-.48.39-.1.08c-.2.19-.38.37-.55.56L5.86,65l-.3.35-.11.16q-.19.27-.36.54l-.16.23,0,.12a5.24,5.24,0,0,0-.23.48l-.13.28,0,.1c0,.15-.09.31-.13.46s-.07.21-.09.32v0a4.67,4.67,0,0,0-.11,1l0,7.94a5.24,5.24,0,0,1,.2-1.34,4.61,4.61,0,0,1,.13-.46,3.08,3.08,0,0,1,.16-.38,5.24,5.24,0,0,1,.23-.48,3.79,3.79,0,0,1,.2-.34c.12-.19.24-.37.37-.54s.26-.35.41-.52l.1-.11a6.68,6.68,0,0,1,.66-.64c.15-.14.31-.27.48-.4s.27-.23.43-.34.37-.25.56-.37.38-.26.59-.38L126.26,2.57c.47-.27,1-.51,1.46-.74l.45-.18c.39-.17.8-.32,1.21-.46l.45-.16.8-.22.61-.17.86-.18.58-.12c.58-.1,1.17-.18,1.76-.24l.55,0L136,0l.68,0c.28,0,.56,0,.85,0l.71,0,.78,0,.72.06c.26,0,.52.05.78.09l.69.1.82.14.64.13c.33.07.65.15,1,.24l.53.14c.57.17,1.12.36,1.66.57.27.1.53.22.79.33s.27.11.4.18c.39.18.77.38,1.13.59l10.36,6,0-7.94Z" transform="translate(52.06 24.48)"/><path class="cls-27" d="M4.27,68.06l0,7.94a5.28,5.28,0,0,0-.11.89l0-7.94a4.41,4.41,0,0,1,.1-.89" transform="translate(52.06 24.48)"/><path class="cls-27" d="M4.17,69l0,7.94V77l0-7.94a.57.57,0,0,1,0-.13" transform="translate(52.06 24.48)"/></g><g class="cls-4"><g class="cls-40"><g class="cls-4"><path class="cls-41" d="M8.73,75.49l0,7.94c-3-1.77-4.58-4.09-4.57-6.41l0-7.94c0,2.32,1.52,4.64,4.57,6.41" transform="translate(52.06 24.48)"/></g></g></g><path class="cls-2" d="M0,77.28l0-7.94c0,3,2,6.12,6.05,8.46l0,7.94C2,83.4,0,80.34,0,77.28Z" transform="translate(52.06 24.48)"/><g class="cls-42"><g class="cls-4"><path class="cls-43" d="M6.08,77.8l0,7.94C2,83.4,0,80.34,0,77.28l0-7.94c0,3,2,6.12,6.05,8.46" transform="translate(52.06 24.48)"/></g></g><polygon class="cls-44" points="249.08 60.06 249.05 68 131.43 136.15 131.47 128.21 249.08 60.06"/><polygon class="cls-45" points="109.53 128.18 109.5 136.13 60.76 107.91 60.79 99.96 109.53 128.18"/><g class="cls-4"><g class="cls-46"><g class="cls-4"><path class="cls-39" d="M79.41,103.73l0,8A18.12,18.12,0,0,1,76,113.17l0-8a17.41,17.41,0,0,0,3.4-1.49" transform="translate(52.06 24.48)"/><path class="cls-13" d="M76,105.22l0,8a22.8,22.8,0,0,1-2.93.72l0-7.94a21.41,21.41,0,0,0,2.94-.73" transform="translate(52.06 24.48)"/><path class="cls-14" d="M73.07,106l0,7.94c-.65.12-1.31.21-2,.28l0-7.94c.67-.07,1.33-.16,2-.28" transform="translate(52.06 24.48)"/><path class="cls-15" d="M71.09,106.23l0,7.94c-.57,0-1.15.09-1.72.11l0-7.94c.58,0,1.15-.06,1.72-.11" transform="translate(52.06 24.48)"/><path class="cls-16" d="M69.37,106.34l0,7.94c-.53,0-1.06,0-1.59,0l0-8q.8,0,1.59,0" transform="translate(52.06 24.48)"/><path class="cls-17" d="M67.78,106.34l0,8-1.53-.09,0-7.94c.51,0,1,.07,1.53.08" transform="translate(52.06 24.48)"/><path class="cls-18" d="M66.25,106.26l0,7.94c-.51,0-1-.1-1.51-.17l0-7.94c.49.07,1,.13,1.5.17" transform="translate(52.06 24.48)"/><path class="cls-19" d="M64.75,106.09l0,7.94c-.52-.07-1-.16-1.54-.27l0-7.94c.5.1,1,.19,1.54.27" transform="translate(52.06 24.48)"/><path class="cls-47" d="M63.21,105.82l0,7.94c-.54-.11-1.08-.25-1.61-.4l0-7.94c.53.15,1.07.28,1.62.4" transform="translate(52.06 24.48)"/><path class="cls-48" d="M61.59,105.42l0,7.94a16.79,16.79,0,0,1-1.89-.64l0-7.94a18,18,0,0,0,1.88.64" transform="translate(52.06 24.48)"/><path class="cls-41" d="M59.71,104.78l0,7.94a17.64,17.64,0,0,1-2.23-1.07l0-7.94a17.14,17.14,0,0,0,2.24,1.07" transform="translate(52.06 24.48)"/></g></g></g><path class="cls-33" d="M199.62,20.56c8,4.65,8.06,12.17.07,16.81L82.48,105.28c-8,4.63-21,4.61-29,0L6.08,77.8C-1.95,73.15-2,65.63,6,61L123.22-6.92c8-4.63,21-4.61,29,0ZM79.41,103.73,197,35.58c6-3.49,6-9.18-.06-12.7l-10.36-6a7.53,7.53,0,0,0,.8-.41L159.62,0a10.26,10.26,0,0,0-1,.66l-10.35-6c-6.08-3.52-15.9-3.53-21.94,0L8.68,62.78c-6,3.5-6,9.19.05,12.71l48.74,28.22c6.07,3.51,15.9,3.53,21.94,0" transform="translate(52.06 24.48)"/><polygon class="cls-7" points="227.46 35.67 226.52 36.22 214.88 29.48 215.82 28.94 227.46 35.67"/><path class="cls-2" d="M205.66,29l0,7.94c0,3-2,6-6,8.34l0-7.94C203.66,35.07,205.65,32.05,205.66,29Z" transform="translate(52.06 24.48)"/><g class="cls-49"><g class="cls-4"><path class="cls-2" d="M205.66,29l0,7.94v.18l0-7.94V29" transform="translate(52.06 24.48)"/><path class="cls-43" d="M205.66,29.21l0,7.94a7.76,7.76,0,0,1-.14,1.18l0-7.94a6.78,6.78,0,0,0,.14-1.18" transform="translate(52.06 24.48)"/><path class="cls-43" d="M205.52,30.39l0,7.94a8.41,8.41,0,0,1-.33,1.16l0-8a7.91,7.91,0,0,0,.33-1.15" transform="translate(52.06 24.48)"/><path class="cls-43" d="M205.19,31.54l0,8a8.15,8.15,0,0,1-.55,1.16l0-7.94a8.25,8.25,0,0,0,.55-1.17" transform="translate(52.06 24.48)"/><path class="cls-43" d="M204.64,32.71l0,7.94a10.22,10.22,0,0,1-.83,1.23l0-8a10,10,0,0,0,.82-1.22" transform="translate(52.06 24.48)"/><path class="cls-43" d="M203.82,33.93l0,8a12.28,12.28,0,0,1-1.27,1.36l0-7.94a11.63,11.63,0,0,0,1.28-1.37" transform="translate(52.06 24.48)"/><path class="cls-43" d="M202.54,35.3l0,7.94a15.93,15.93,0,0,1-2.6,1.92l0-7.94a15.51,15.51,0,0,0,2.6-1.92" transform="translate(52.06 24.48)"/><path class="cls-43" d="M199.94,37.22l0,7.94-.25.15,0-7.94.25-.15" transform="translate(52.06 24.48)"/></g></g><polygon class="cls-43" points="251.75 61.84 251.72 69.78 134.5 137.7 134.54 129.76 251.75 61.84"/><polygon class="cls-43" points="105.53 129.72 105.5 137.66 58.1 110.22 58.13 102.28 105.53 129.72"/><path class="cls-7" d="M197,22.88c6.08,3.52,6.1,9.21.06,12.7L79.41,103.73c-6,3.51-15.87,3.49-21.94,0L8.73,75.49C2.66,72,2.64,66.28,8.68,62.78L126.29-5.37c6-3.5,15.86-3.49,21.94,0l10.35,6c-2.4,1.82-2.15,4.44.73,6.11l16.74,9.69a12.69,12.69,0,0,0,10.55.42Z" transform="translate(52.06 24.48)"/><path class="cls-2" d="M82.48,105.28l0,8c-8,4.63-21,4.61-29,0l0-7.94C61.5,109.89,74.49,109.91,82.48,105.28Z" transform="translate(52.06 24.48)"/><g class="cls-50"><g class="cls-4"><path class="cls-51" d="M82.48,105.28l0,8a24.11,24.11,0,0,1-4.5,2l0-8a22.86,22.86,0,0,0,4.5-2" transform="translate(52.06 24.48)"/><path class="cls-51" d="M78,107.25l0,8a30.13,30.13,0,0,1-3.88,1l0-8a29.73,29.73,0,0,0,3.88-1" transform="translate(52.06 24.48)"/><path class="cls-51" d="M74.1,108.21l0,8c-.86.15-1.74.27-2.62.36l0-7.94c.88-.09,1.76-.21,2.62-.37" transform="translate(52.06 24.48)"/><path class="cls-51" d="M71.48,108.58l0,7.94q-1.12.11-2.28.15l0-8c.76,0,1.52-.07,2.27-.14" transform="translate(52.06 24.48)"/><path class="cls-51" d="M69.21,108.72l0,8q-1,0-2.1,0l0-7.94c.7,0,1.41,0,2.11,0" transform="translate(52.06 24.48)"/><path class="cls-51" d="M67.1,108.73l0,7.94c-.67,0-1.35,0-2-.11l0-7.94c.67.06,1.35.09,2,.11" transform="translate(52.06 24.48)"/><path class="cls-51" d="M65.08,108.62l0,7.94c-.67,0-1.33-.13-2-.22l0-8c.66.1,1.32.17,2,.23" transform="translate(52.06 24.48)"/><path class="cls-51" d="M63.09,108.39l0,8q-1-.15-2-.36l0-7.94c.67.14,1.35.26,2,.35" transform="translate(52.06 24.48)"/><path class="cls-51" d="M61.05,108,61,116c-.72-.15-1.44-.33-2.14-.53l0-7.94c.69.2,1.41.38,2.13.53" transform="translate(52.06 24.48)"/><path class="cls-51" d="M58.92,107.51l0,7.94a26,26,0,0,1-2.49-.84l0-7.94c.8.31,1.63.6,2.49.84" transform="translate(52.06 24.48)"/><path class="cls-51" d="M56.43,106.67l0,7.94a22.33,22.33,0,0,1-3-1.42l0-7.94a24.5,24.5,0,0,0,3,1.42" transform="translate(52.06 24.48)"/></g></g></g><g class="cls-4"><polygon class="cls-52" points="100.54 70.98 157.49 37.89 214.81 70.98 157.86 104.08 100.54 70.98"/></g><g class="cls-4"><path class="cls-3" d="M27.93,63.14V61.23a2.88,2.88,0,0,0,1.71,2.39v1.91A2.9,2.9,0,0,1,27.93,63.14Z" transform="translate(52.06 24.48)"/><g class="cls-53"><g class="cls-4"><path class="cls-54" d="M29.65,63.62v1.91a2.9,2.9,0,0,1-1.71-2.39V61.23a2.88,2.88,0,0,0,1.71,2.39" transform="translate(52.06 24.48)"/></g></g><polygon class="cls-54" points="127.73 114.67 127.73 116.58 81.7 90.01 81.71 88.1 127.73 114.67"/><path class="cls-3" d="M85.57,87.83v1.91a2.9,2.9,0,0,1-1.69,2.36,9,9,0,0,1-8.21,0V90.19a9,9,0,0,0,8.21,0A2.86,2.86,0,0,0,85.57,87.83Z" transform="translate(52.06 24.48)"/><g class="cls-55"><g class="cls-4"><path class="cls-3" d="M85.57,87.83v0" transform="translate(52.06 24.48)"/><path class="cls-54" d="M85.57,87.88V89.8a1.84,1.84,0,0,1,0,.33V88.22a2.09,2.09,0,0,0,0-.34" transform="translate(52.06 24.48)"/><path class="cls-54" d="M85.53,88.22v1.91a3,3,0,0,1-.1.32V88.54a2.23,2.23,0,0,0,.09-.32" transform="translate(52.06 24.48)"/><path class="cls-54" d="M85.44,88.54v1.91a1.66,1.66,0,0,1-.15.33V88.87a2.49,2.49,0,0,0,.16-.33" transform="translate(52.06 24.48)"/><path class="cls-54" d="M85.28,88.87v1.91a2.71,2.71,0,0,1-.24.35V89.22a1.92,1.92,0,0,0,.23-.35" transform="translate(52.06 24.48)"/><path class="cls-54" d="M85.05,89.22v1.91a3.2,3.2,0,0,1-.36.39V89.61a3.2,3.2,0,0,0,.36-.39" transform="translate(52.06 24.48)"/><path class="cls-54" d="M84.69,89.61v1.91a4.32,4.32,0,0,1-.73.54V90.15a4.42,4.42,0,0,0,.74-.54" transform="translate(52.06 24.48)"/><path class="cls-54" d="M84,90.15v1.91l-.07,0a6,6,0,0,1-1.27.56V90.75a6.11,6.11,0,0,0,1.27-.56l.07,0" transform="translate(52.06 24.48)"/><path class="cls-54" d="M82.61,90.75v1.91a8.44,8.44,0,0,1-1.1.28V91a7.7,7.7,0,0,0,1.1-.28" transform="translate(52.06 24.48)"/><path class="cls-54" d="M81.51,91v1.91c-.25,0-.5.08-.75.1V91.13l.74-.1" transform="translate(52.06 24.48)"/><path class="cls-54" d="M80.77,91.13V93c-.21,0-.42,0-.64,0V91.17l.64,0" transform="translate(52.06 24.48)"/><path class="cls-54" d="M80.13,91.17v1.91h-.59V91.17q.3,0,.6,0" transform="translate(52.06 24.48)"/><path class="cls-54" d="M79.53,91.17v1.92l-.58,0V91.14a5.44,5.44,0,0,0,.57,0" transform="translate(52.06 24.48)"/><path class="cls-54" d="M79,91.14v1.92L78.39,93V91.08a5.51,5.51,0,0,0,.57.06" transform="translate(52.06 24.48)"/><path class="cls-54" d="M78.39,91.08V93a5.86,5.86,0,0,1-.58-.1V91l.57.1" transform="translate(52.06 24.48)"/><path class="cls-54" d="M77.82,91v1.91l-.6-.14V90.83a6,6,0,0,0,.61.15" transform="translate(52.06 24.48)"/><path class="cls-54" d="M77.21,90.83v1.92c-.24-.07-.48-.15-.71-.24V90.59c.23.09.46.17.7.24" transform="translate(52.06 24.48)"/><path class="cls-54" d="M76.51,90.59v1.92a7.07,7.07,0,0,1-.83-.4V90.19a6.46,6.46,0,0,0,.84.4" transform="translate(52.06 24.48)"/></g></g><path class="cls-43" d="M83.86,85.44c2.27,1.31,2.28,3.44,0,4.75a9,9,0,0,1-8.21,0l-46-26.57c-2.28-1.31-2.29-3.44,0-4.75a9,9,0,0,1,8.21,0Z" transform="translate(52.06 24.48)"/></g><text class="cls-56" transform="matrix(0.53, 0.3, -0.8, 0.61, 86.58, 89.3)">S<tspan class="cls-57" x="7.93" y="0">C</tspan><tspan x="16.44" y="0">ANNING</tspan></text><polygon class="cls-52" points="189.13 181.84 187.37 182.79 185.65 181.73 187.42 180.78 189.13 181.84"/><polygon class="cls-52" points="159.64 177.9 157.87 178.86 156.16 177.8 157.93 176.84 159.64 177.9"/><g class="cls-4"><path class="cls-52" d="M115.16,129.46l10.44,6.47-10.75,5.81-10.45-6.47Zm-.27,10.41,7.47-4-7.26-4.49-7.46,4,7.25,4.5" transform="translate(52.06 24.48)"/><polygon class="cls-52" points="171.12 160.21 167 162.43 163 159.96 167.12 157.73 171.12 160.21"/><polygon class="cls-52" points="163.43 165.92 161.67 166.88 159.95 165.82 161.72 164.86 163.43 165.92"/><polygon class="cls-52" points="187.78 166.67 189.49 167.73 187.72 168.69 186.01 167.63 184.25 168.58 182.49 169.53 180.77 168.47 179 169.43 180.72 170.49 178.95 171.44 177.24 170.38 175.52 169.32 173.76 170.27 171.99 171.23 173.71 172.29 171.95 173.24 170.23 172.18 168.52 171.12 166.81 170.06 165.09 169 166.86 168.05 168.63 167.09 170.34 168.15 172.1 167.2 173.81 168.26 175.57 167.31 173.86 166.25 175.63 165.29 173.92 164.23 175.68 163.28 177.45 162.32 179.21 161.37 180.93 162.43 179.16 163.38 177.4 164.34 179.11 165.4 180.82 166.46 182.58 165.51 184.3 166.57 186.07 165.61 187.78 166.67"/><polygon class="cls-52" points="168.52 171.12 166.75 172.08 164.99 173.03 163.22 173.98 161.51 172.92 159.8 171.86 158.08 170.8 156.37 169.74 158.13 168.78 156.42 167.72 154.71 166.66 156.47 165.71 154.76 164.65 153.04 163.59 151.28 164.54 149.56 163.48 151.33 162.52 153.1 161.57 154.81 162.63 156.53 163.69 158.24 164.75 159.95 165.82 161.67 166.88 163.38 167.94 165.09 169 166.81 170.06 168.52 171.12"/><polygon class="cls-52" points="196.35 171.98 198.06 173.04 196.29 174 194.53 174.95 192.77 175.9 191.06 174.84 189.29 175.8 191 176.86 189.24 177.81 187.52 176.75 185.76 177.7 183.99 178.66 185.7 179.72 183.94 180.67 182.23 179.61 180.51 178.55 178.8 177.49 180.56 176.54 178.85 175.48 177.09 176.43 175.37 175.37 173.66 174.31 175.42 173.35 173.71 172.29 175.48 171.34 177.19 172.4 178.95 171.44 180.66 172.5 178.9 173.46 180.62 174.52 182.33 175.58 184.09 174.63 185.86 173.68 187.57 174.74 189.34 173.78 187.63 172.72 185.91 171.66 184.15 172.62 182.38 173.57 180.66 172.5 182.43 171.55 180.72 170.49 182.49 169.53 184.2 170.59 185.96 169.64 187.68 170.71 189.44 169.75 191.21 168.8 192.92 169.86 194.63 170.92 192.86 171.87 191.1 172.83 192.82 173.89 194.58 172.94 196.35 171.98"/><polygon class="cls-52" points="163.07 180.03 161.3 180.98 159.59 179.92 161.36 178.97 163.07 180.03"/><polygon class="cls-52" points="149.41 169.52 147.65 170.47 145.88 171.43 147.6 172.49 145.84 173.45 147.55 174.51 149.31 173.55 151.02 174.61 152.79 173.66 154.51 174.72 156.22 175.78 154.45 176.74 152.74 175.68 150.98 176.63 152.69 177.69 154.45 176.74 156.16 177.8 154.4 178.75 156.11 179.81 157.87 178.86 159.59 179.92 157.83 180.88 156.07 181.83 154.35 180.76 152.64 179.7 150.93 178.64 149.16 179.6 147.45 178.54 149.21 177.58 147.5 176.52 145.78 175.46 144.02 176.41 142.31 175.35 140.59 174.29 142.35 173.34 140.64 172.28 138.93 171.22 137.17 172.17 135.45 171.1 137.21 170.15 138.98 169.2 140.74 168.25 142.46 169.31 144.17 170.37 145.94 169.41 147.7 168.46 149.41 169.52"/><polygon class="cls-52" points="194.27 185.03 192.51 185.98 190.79 184.92 192.56 183.97 194.27 185.03"/><path class="cls-52" d="M147.56,149.53,158,156l-10.76,5.81-10.45-6.47Zm-.26,10.41,7.46-4-7.25-4.49-7.47,4,7.26,4.49" transform="translate(52.06 24.48)"/><path class="cls-52" d="M81.8,147.49,92.25,154l-10.76,5.81L71,153.31Zm-.26,10.41,7.47-4-7.26-4.49-7.47,4,7.26,4.49" transform="translate(52.06 24.48)"/><polygon class="cls-52" points="197.7 187.15 195.94 188.1 194.22 187.04 195.99 186.09 197.7 187.15"/><polygon class="cls-52" points="171.53 189.36 169.77 190.32 168.06 189.26 166.35 188.2 168.11 187.24 169.82 188.3 171.53 189.36"/><polygon class="cls-52" points="177.09 176.43 175.32 177.38 177.03 178.44 178.74 179.5 176.98 180.46 175.22 181.41 173.45 182.37 171.74 181.31 169.97 182.26 171.69 183.32 173.45 182.37 175.17 183.43 173.4 184.38 171.64 185.34 169.87 186.29 168.16 185.23 166.39 186.18 164.63 187.13 162.87 188.09 161.1 189.04 159.34 189.99 157.62 188.93 159.39 187.98 157.68 186.92 159.44 185.97 157.73 184.9 156.01 183.84 154.3 182.78 156.07 181.83 157.78 182.89 159.54 181.94 161.25 183 162.97 184.06 161.21 185.01 162.92 186.07 164.68 185.12 166.44 184.17 164.73 183.11 166.5 182.15 168.26 181.2 166.55 180.13 164.83 179.07 163.12 178.01 161.36 178.97 159.64 177.9 161.41 176.95 159.69 175.89 157.93 176.84 156.22 175.78 157.98 174.83 156.27 173.77 154.55 172.71 152.79 173.66 151.08 172.6 149.31 173.55 147.6 172.49 149.37 171.54 151.13 170.59 149.41 169.52 151.17 168.57 149.46 167.51 147.75 166.45 145.99 167.4 144.27 166.34 146.03 165.38 147.8 164.43 149.52 165.49 151.28 164.54 152.99 165.6 154.71 166.66 152.94 167.61 154.66 168.68 156.37 169.74 154.6 170.69 156.31 171.75 158.03 172.82 159.74 173.88 161.46 174.94 163.17 176 164.88 177.06 166.6 178.12 168.37 177.17 170.08 178.23 171.84 177.27 173.6 176.32 175.37 175.37 177.09 176.43"/><polygon class="cls-52" points="152.59 181.72 150.82 182.67 149.05 183.63 147.29 184.58 145.52 185.53 143.76 186.49 145.48 187.55 143.72 188.5 141.95 189.46 140.23 188.4 142 187.44 140.29 186.38 142.05 185.43 140.34 184.37 138.57 185.32 136.81 186.27 135.09 185.21 136.86 184.26 138.63 183.31 140.39 182.35 142.16 181.4 143.87 182.46 145.63 181.5 143.92 180.44 145.68 179.49 147.39 180.55 149.16 179.6 150.87 180.66 152.59 181.72"/><polygon class="cls-52" points="195.94 188.1 194.17 189.06 192.45 188 190.74 186.93 189.03 185.87 187.31 184.81 185.6 183.75 183.83 184.7 182.07 185.66 180.3 186.61 178.54 187.56 176.83 186.5 175.06 187.46 176.78 188.52 178.49 189.58 180.21 190.64 181.97 189.69 183.73 188.73 182.02 187.67 183.79 186.72 185.5 187.78 187.21 188.84 188.93 189.9 190.64 190.96 188.87 191.92 187.16 190.86 185.44 189.79 183.68 190.75 181.92 191.7 180.15 192.66 178.44 191.59 176.68 192.55 174.96 191.49 173.25 190.42 175.01 189.47 173.3 188.41 171.59 187.35 173.35 186.4 175.12 185.44 176.88 184.49 178.65 183.53 180.36 184.59 182.12 183.64 180.41 182.58 178.65 183.53 176.94 182.47 178.7 181.52 180.46 180.57 182.23 179.61 183.94 180.67 185.65 181.73 187.37 182.79 189.08 183.86 190.79 184.92 192.51 185.98 194.22 187.04 195.94 188.1"/><polygon class="cls-52" points="174.96 191.49 173.2 192.44 171.48 191.38 173.25 190.42 174.96 191.49"/><polygon class="cls-52" points="155.86 189.89 154.09 190.84 152.33 191.79 150.62 190.73 152.38 189.78 154.15 188.83 152.43 187.76 150.66 188.72 148.9 189.67 147.14 190.62 145.37 191.58 143.66 190.52 145.43 189.56 147.19 188.61 148.95 187.66 147.24 186.6 149.01 185.64 150.77 184.69 152.48 185.75 154.25 184.8 155.96 185.86 157.68 186.92 155.91 187.87 157.62 188.93 155.86 189.89"/><polygon class="cls-52" points="164.48 193.18 162.76 192.12 164.53 191.16 166.24 192.22 164.48 193.18"/><polygon class="cls-52" points="166.14 196.25 167.85 197.31 166.09 198.27 164.38 197.21 162.66 196.15 164.43 195.19 162.71 194.13 160.95 195.09 159.18 196.04 157.42 196.99 155.71 195.93 154 194.87 152.23 195.83 150.51 194.76 152.28 193.81 150.57 192.75 152.33 191.79 154.04 192.85 155.81 191.9 157.52 192.97 155.76 193.92 157.47 194.98 159.23 194.03 161 193.07 159.29 192.01 157.57 190.95 159.34 189.99 161.05 191.06 162.82 190.1 164.59 189.15 166.3 190.21 168.01 191.27 169.72 192.33 167.95 193.28 169.67 194.35 167.91 195.3 166.14 196.25"/><polygon class="cls-52" points="187.11 192.87 185.35 193.82 183.58 194.78 181.81 195.73 180.05 196.69 178.34 195.63 176.58 196.58 174.81 197.53 173.05 198.49 171.28 199.44 169.52 200.39 167.75 201.35 165.99 202.3 167.7 203.36 165.93 204.32 164.22 203.25 162.5 202.19 164.27 201.24 162.56 200.18 164.32 199.22 166.09 198.27 167.8 199.33 169.57 198.38 167.85 197.31 169.62 196.36 171.33 197.42 173.09 196.47 171.38 195.41 173.15 194.45 171.44 193.39 173.2 192.44 174.91 193.5 176.62 194.56 178.39 193.61 180.1 194.67 181.87 193.72 183.63 192.76 185.4 191.81 187.11 192.87"/></g><polygon class="cls-52" points="203.52 180.28 199.4 182.5 195.4 180.02 199.52 177.8 203.52 180.28"/><polygon class="cls-52" points="137.77 178.24 133.64 180.47 129.64 177.99 133.77 175.76 137.77 178.24"/><polygon class="cls-52" points="184.35 164.55 182.58 165.51 180.87 164.45 182.64 163.49 184.35 164.55"/><polygon class="cls-52" points="172.15 165.19 173.86 166.25 172.1 167.2 170.39 166.14 172.15 165.19"/><polygon class="cls-52" points="171.89 175.26 170.13 176.21 168.37 177.17 166.65 176.11 168.42 175.15 170.18 174.2 171.89 175.26"/><polygon class="cls-52" points="160 163.8 158.24 164.75 156.53 163.69 158.29 162.74 160 163.8"/><polygon class="cls-52" points="156.58 161.68 154.81 162.63 153.1 161.57 154.86 160.62 156.58 161.68"/><polygon class="cls-52" points="147.09 192.64 148.86 191.69 150.57 192.75 148.8 193.7 147.09 192.64"/><polygon class="cls-7" points="182.16 71.98 180.27 73.07 178.38 71.98 180.26 70.88 182.16 71.98"/><polygon class="cls-7" points="149.97 68.69 148.07 69.79 146.18 68.69 148.07 67.59 149.97 68.69"/><g class="cls-4"><path class="cls-7" d="M105.33,17.9l11.58,6.68-11.5,6.68L93.83,24.58Zm.07,11.32,8-4.64-8-4.64-8,4.64,8,4.64" transform="translate(52.06 24.48)"/><polygon class="cls-7" points="161.85 49.06 157.44 51.62 153.01 49.06 157.41 46.5 161.85 49.06"/><polygon class="cls-7" points="153.68 55.53 151.79 56.63 149.9 55.53 151.78 54.44 153.68 55.53"/><polygon class="cls-7" points="180.18 55.53 182.08 56.63 180.19 57.72 178.29 56.63 176.41 57.72 174.52 58.82 172.62 57.72 170.73 58.82 172.63 59.92 170.75 61.01 168.85 59.92 166.94 58.82 165.06 59.91 163.17 61.01 165.07 62.11 163.19 63.21 161.28 62.11 159.39 61.01 157.49 59.92 155.59 58.82 157.48 57.73 159.37 56.63 161.27 57.72 163.15 56.63 165.05 57.72 166.93 56.63 165.04 55.53 166.93 54.44 165.03 53.34 166.91 52.24 168.8 51.15 170.69 50.05 172.59 51.15 170.7 52.24 168.81 53.34 170.71 54.44 172.6 55.53 174.49 54.44 176.39 55.53 178.28 54.44 180.18 55.53"/><polygon class="cls-7" points="159.39 61.01 157.5 62.11 155.61 63.21 153.73 64.3 151.83 63.21 149.93 62.11 148.03 61.01 146.13 59.92 148.02 58.82 146.12 57.73 144.22 56.63 146.1 55.53 144.21 54.44 142.31 53.34 140.42 54.44 138.52 53.34 140.41 52.24 142.3 51.15 144.2 52.24 146.1 53.34 147.99 54.44 149.9 55.53 151.79 56.63 153.69 57.72 155.59 58.82 157.49 59.92 159.39 61.01"/><polygon class="cls-7" points="189.68 61.01 191.57 62.11 189.68 63.21 187.8 64.3 185.91 65.4 184.02 64.3 182.13 65.4 184.02 66.5 182.14 67.59 180.24 66.5 178.36 67.59 176.47 68.69 178.36 69.79 176.48 70.88 174.58 69.79 172.68 68.69 170.78 67.59 172.67 66.5 170.77 65.4 168.88 66.5 166.98 65.4 165.09 64.3 166.97 63.21 165.07 62.11 166.96 61.01 168.86 62.11 170.75 61.01 172.64 62.11 170.76 63.2 172.66 64.3 174.56 65.4 176.44 64.3 178.33 63.21 180.22 64.3 182.12 63.2 180.22 62.11 178.32 61.01 176.43 62.11 174.54 63.21 172.64 62.11 174.53 61.01 172.63 59.92 174.52 58.82 176.42 59.91 178.3 58.82 180.21 59.92 182.09 58.82 183.98 57.72 185.88 58.82 187.78 59.91 185.88 61.01 184 62.11 185.9 63.21 187.79 62.11 189.68 61.01"/><polygon class="cls-7" points="153.76 70.88 151.87 71.98 149.98 70.89 151.87 69.79 153.76 70.88"/><polygon class="cls-7" points="138.56 59.92 136.67 61.01 134.78 62.11 136.69 63.21 134.8 64.31 136.7 65.4 138.58 64.31 140.48 65.4 142.37 64.3 144.27 65.4 146.17 66.5 144.28 67.6 142.38 66.5 140.5 67.6 142.4 68.69 144.28 67.6 146.18 68.69 144.29 69.79 146.19 70.88 148.07 69.79 149.98 70.89 148.09 71.98 146.21 73.08 144.3 71.98 142.41 70.88 140.51 69.79 138.63 70.88 136.73 69.79 138.61 68.69 136.71 67.59 134.81 66.5 132.93 67.59 131.03 66.5 129.13 65.4 131.01 64.3 129.12 63.21 127.22 62.11 125.33 63.21 123.43 62.11 125.32 61.01 127.2 59.92 129.09 58.82 130.99 59.92 132.88 61.02 134.78 59.92 136.66 58.82 138.56 59.92"/><polygon class="cls-7" points="187.85 75.27 185.97 76.36 184.07 75.27 185.96 74.17 187.85 75.27"/><path class="cls-7" d="M141.24,38.63l11.58,6.68L141.32,52l-11.58-6.69ZM141.31,50l8-4.63-8-4.64-8,4.63,8,4.64" transform="translate(52.06 24.48)"/><path class="cls-7" d="M69.67,38.63l11.58,6.68L69.75,52,58.17,45.31ZM69.73,50l8-4.64-8-4.64-8,4.64,8,4.64" transform="translate(52.06 24.48)"/><polygon class="cls-7" points="191.66 77.46 189.77 78.56 187.87 77.46 189.76 76.36 191.66 77.46"/><polygon class="cls-7" points="163.28 80.75 161.4 81.84 159.5 80.75 157.6 79.65 159.49 78.56 161.38 79.65 163.28 80.75"/><polygon class="cls-7" points="168.88 66.5 166.99 67.6 168.89 68.69 170.79 69.79 168.9 70.88 167.02 71.98 165.13 73.08 163.23 71.98 161.35 73.08 163.24 74.17 165.13 73.08 167.03 74.17 165.15 75.27 163.26 76.36 161.37 77.46 159.47 76.36 157.58 77.46 155.7 78.56 153.81 79.65 151.92 80.75 150.04 81.84 148.14 80.75 150.03 79.65 148.13 78.56 150.02 77.46 148.12 76.36 146.22 75.27 144.32 74.17 146.21 73.08 148.1 74.17 149.99 73.08 151.89 74.17 153.79 75.27 151.91 76.36 153.8 77.46 155.69 76.36 157.57 75.27 155.67 74.17 157.56 73.08 159.45 71.98 157.55 70.88 155.65 69.79 153.75 68.69 151.87 69.79 149.97 68.69 151.85 67.59 149.95 66.5 148.07 67.59 146.17 66.5 148.06 65.4 146.16 64.31 144.25 63.21 142.37 64.3 140.47 63.21 138.58 64.31 136.69 63.21 138.58 62.11 140.46 61.02 138.56 59.92 140.44 58.82 138.55 57.73 136.65 56.63 134.76 57.73 132.86 56.63 134.75 55.53 136.64 54.44 138.54 55.53 140.42 54.44 142.32 55.53 144.22 56.63 142.33 57.72 144.24 58.82 146.13 59.92 144.24 61.02 146.14 62.11 148.04 63.21 149.94 64.31 151.84 65.4 153.73 66.5 155.64 67.6 157.53 68.69 159.43 67.59 161.32 68.69 163.21 67.59 165.09 66.5 166.98 65.4 168.88 66.5"/><polygon class="cls-7" points="142.42 73.07 140.53 74.17 138.64 75.27 136.76 76.36 134.87 77.46 132.98 78.56 134.89 79.65 133 80.75 131.11 81.85 129.21 80.75 131.1 79.65 129.2 78.56 131.09 77.46 129.19 76.36 127.31 77.46 125.42 78.56 123.52 77.46 125.41 76.36 127.29 75.27 129.18 74.17 131.07 73.08 132.97 74.17 134.85 73.08 132.95 71.98 134.84 70.89 136.74 71.98 138.63 70.88 140.52 71.98 142.42 73.07"/><polygon class="cls-7" points="189.77 78.56 187.88 79.65 185.98 78.56 184.08 77.46 182.18 76.36 180.29 75.27 178.38 74.17 176.5 75.27 174.61 76.36 172.72 77.46 170.84 78.56 168.94 77.46 167.06 78.56 168.95 79.65 170.86 80.75 172.75 81.84 174.64 80.75 176.52 79.65 174.63 78.56 176.52 77.46 178.41 78.56 180.31 79.65 182.21 80.75 184.11 81.84 182.22 82.94 180.32 81.85 178.42 80.75 176.53 81.84 174.65 82.94 172.76 84.04 170.86 82.94 168.98 84.04 167.08 82.94 165.18 81.84 167.06 80.75 165.16 79.65 163.27 78.56 165.16 77.46 167.04 76.36 168.93 75.27 170.82 74.17 172.72 75.27 174.6 74.17 172.7 73.08 170.82 74.17 168.92 73.08 170.81 71.98 172.69 70.89 174.58 69.79 176.48 70.88 178.38 71.98 180.27 73.07 182.18 74.17 184.07 75.27 185.97 76.36 187.87 77.46 189.77 78.56"/><polygon class="cls-7" points="167.08 82.94 165.2 84.04 163.29 82.94 165.18 81.84 167.08 82.94"/><polygon class="cls-7" points="146.26 81.84 144.37 82.94 142.48 84.04 140.58 82.94 142.47 81.85 144.36 80.75 142.46 79.65 140.57 80.75 138.68 81.84 136.8 82.94 134.91 84.04 133.01 82.94 134.9 81.84 136.78 80.75 138.67 79.65 136.77 78.56 138.66 77.46 140.55 76.36 142.44 77.46 144.33 76.36 146.23 77.46 148.13 78.56 146.25 79.65 148.14 80.75 146.26 81.84"/><polygon class="cls-7" points="155.74 85.13 153.84 84.04 155.72 82.94 157.62 84.04 155.74 85.13"/><polygon class="cls-7" points="157.65 88.42 159.55 89.52 157.66 90.62 155.76 89.52 153.86 88.42 155.75 87.32 153.85 86.23 151.96 87.33 150.08 88.42 148.19 89.52 146.29 88.42 144.4 87.33 142.51 88.43 140.6 87.33 142.49 86.23 140.6 85.13 142.48 84.04 144.38 85.13 146.26 84.04 148.17 85.14 146.28 86.23 148.18 87.33 150.06 86.23 151.95 85.13 150.06 84.04 148.15 82.94 150.04 81.84 151.94 82.94 153.83 81.85 155.72 80.75 157.61 81.84 159.51 82.94 161.41 84.03 159.52 85.13 161.42 86.23 159.54 87.33 157.65 88.42"/><polygon class="cls-7" points="180.34 84.04 178.45 85.13 176.56 86.23 174.68 87.33 172.79 88.42 170.89 87.33 169.01 88.42 167.12 89.52 165.23 90.62 163.35 91.71 161.46 92.81 159.57 93.91 157.69 95 159.59 96.1 157.69 97.2 155.8 96.1 153.89 95 155.78 93.9 153.89 92.81 155.77 91.71 157.66 90.62 159.56 91.71 161.44 90.61 159.55 89.52 161.43 88.42 163.33 89.52 165.22 88.42 163.32 87.33 165.21 86.23 163.31 85.13 165.2 84.04 167.09 85.13 168.99 86.23 170.88 85.13 172.78 86.23 174.66 85.14 176.55 84.04 178.44 82.94 180.34 84.04"/></g><polygon class="cls-7" points="197.75 69.79 193.35 72.35 188.91 69.79 193.32 67.23 197.75 69.79"/><polygon class="cls-7" points="126.19 69.79 121.78 72.35 117.35 69.79 121.76 67.23 126.19 69.79"/><polygon class="cls-7" points="176.38 53.34 174.49 54.44 172.59 53.34 174.48 52.24 176.38 53.34"/><polygon class="cls-7" points="163.14 54.44 165.04 55.53 163.15 56.63 161.25 55.53 163.14 54.44"/><polygon class="cls-7" points="163.19 65.4 161.31 66.5 159.43 67.59 157.53 66.5 159.41 65.4 161.3 64.31 163.19 65.4"/><polygon class="cls-7" points="149.88 53.34 147.99 54.44 146.1 53.34 147.98 52.24 149.88 53.34"/><polygon class="cls-7" points="146.08 51.15 144.2 52.24 142.3 51.15 144.18 50.05 146.08 51.15"/><polygon class="cls-7" points="136.81 85.14 138.7 84.04 140.6 85.13 138.71 86.23 136.81 85.14"/></g></g></g></svg>