<svg xmlns="http://www.w3.org/2000/svg" xmlns:xlink="http://www.w3.org/1999/xlink" viewBox="0 0 448.39 448.39"><defs><style>.cls-1,.cls-6{fill:none;}.cls-2{fill:#0d0026;}.cls-3{fill:#e848ff;}.cls-4{isolation:isolate;}.cls-5{opacity:0.71;fill:url(#radial-gradient);}.cls-5,.cls-9{mix-blend-mode:screen;}.cls-6{stroke:#a1e79f;stroke-miterlimit:10;stroke-dasharray:2;}.cls-7{mix-blend-mode:multiply;fill:url(#radial-gradient-2);}.cls-8{fill:#183352;}.cls-10{clip-path:url(#clip-path);}.cls-11{fill:#121212;}.cls-12{fill:#111;}.cls-13{clip-path:url(#clip-path-2);}.cls-14{fill:#391360;}.cls-15{fill:#37125d;}.cls-16{fill:#35125a;}.cls-17{fill:#341158;}.cls-18{fill:#321155;}.cls-19{fill:#311052;}.cls-20{fill:#2f104f;}.cls-21{fill:#0d0d0d;}.cls-22{fill:#131313;}.cls-23{clip-path:url(#clip-path-3);}.cls-24{fill:#101010;}.cls-25{fill:#171717;}.cls-26{clip-path:url(#clip-path-4);}.cls-27{fill:#0e0e0e;}.cls-28{fill:#0f0f0f;}.cls-29{clip-path:url(#clip-path-5);}.cls-30{clip-path:url(#clip-path-6);}.cls-31{fill:#141414;}.cls-32{fill:#151515;}.cls-33{fill:#161616;}.cls-34{fill:#bababa;}.cls-35{clip-path:url(#clip-path-7);}.cls-36{clip-path:url(#clip-path-8);}.cls-37{clip-path:url(#clip-path-9);}.cls-38{clip-path:url(#clip-path-10);}.cls-39{clip-path:url(#clip-path-11);}.cls-40{fill:#3a1363;}.cls-41{clip-path:url(#clip-path-12);}.cls-42{fill:#2a0e47;}.cls-43{clip-path:url(#clip-path-13);}.cls-44{fill:#a1e79f;}.cls-45{fill:#3e156a;}.cls-46{fill:#2b0e49;}.cls-47{clip-path:url(#clip-path-14);}.cls-48{fill:#2d0f4d;}.cls-49{fill:#2c0f4a;}.cls-50{clip-path:url(#clip-path-15);}.cls-51{clip-path:url(#clip-path-16);}.cls-52,.cls-56{fill:#fff;}.cls-53{clip-path:url(#clip-path-17);}.cls-54{fill:#9ca59d;}.cls-55{clip-path:url(#clip-path-18);}.cls-56{font-size:7.5px;font-family:Montserrat-BlackItalic, Montserrat;font-weight:800;font-style:italic;letter-spacing:0.4em;}.cls-57{letter-spacing:0.39em;}</style><radialGradient id="radial-gradient" cx="224.19" cy="224.19" r="224.19" gradientUnits="userSpaceOnUse"><stop offset="0" stop-color="#dc4dff"/><stop offset="0.15" stop-color="#b03ecc"/><stop offset="0.39" stop-color="#722885"/><stop offset="0.6" stop-color="#41174c"/><stop offset="0.77" stop-color="#1e0a22"/><stop offset="0.92" stop-color="#080309"/><stop offset="1"/></radialGradient><radialGradient id="radial-gradient-2" cx="-239.87" cy="525.44" r="75.04" gradientTransform="matrix(0.87, -0.5, 0.86, 0.5, -130.39, -192.41)" gradientUnits="userSpaceOnUse"><stop offset="0" stop-color="#15195b"/><stop offset="0.03" stop-color="#202362"/><stop offset="0.24" stop-color="#636591"/><stop offset="0.43" stop-color="#9a9cb8"/><stop offset="0.61" stop-color="#c6c7d7"/><stop offset="0.77" stop-color="#e5e6ed"/><stop offset="0.91" stop-color="#f8f8fa"/><stop offset="1" stop-color="#fff"/></radialGradient><clipPath id="clip-path" transform="translate(112.94 98.6)"><path class="cls-1" d="M159.58,7.94a9.74,9.74,0,0,0-1,.66l0-7.94a10.26,10.26,0,0,1,1-.66C159.61,2.38,159.59,5.56,159.58,7.94Z"/></clipPath><clipPath id="clip-path-2" transform="translate(112.94 98.6)"><path class="cls-1" d="M156.91,11.4l0-7.95A3.57,3.57,0,0,1,158.58.66l0,7.94A3.61,3.61,0,0,0,156.91,11.4Z"/></clipPath><clipPath id="clip-path-3" transform="translate(112.94 98.6)"><path class="cls-1" d="M156.91,11.4l0-7.95c0,1.2.78,2.4,2.36,3.32l0,7.94C157.7,13.79,156.91,12.59,156.91,11.4Z"/></clipPath><clipPath id="clip-path-4" transform="translate(112.94 98.6)"><path class="cls-1" d="M179.53,21.33a1.47,1.47,0,0,0-1.34,0c0-2.65,0-5.29,0-7.94a1.48,1.48,0,0,1,1.33,0h0l0,7.95Z"/></clipPath><clipPath id="clip-path-5" transform="translate(112.94 98.6)"><path class="cls-1" d="M179.63,21.39l0-7.94a.43.43,0,0,1,.18.33l0,7.94A.43.43,0,0,0,179.63,21.39Z"/></clipPath><clipPath id="clip-path-6" transform="translate(112.94 98.6)"><path class="cls-1" d="M179.84,13.78l0,7.94a.47.47,0,0,1-.27.38,1.5,1.5,0,0,1-1.34,0,.47.47,0,0,1-.28-.4l0-7.94a.46.46,0,0,0,.28.39,1.47,1.47,0,0,0,1.34,0A.48.48,0,0,0,179.84,13.78Z"/></clipPath><clipPath id="clip-path-7" transform="translate(112.94 98.6)"><path class="cls-1" d="M187.4,16.47l0,8c-.26.14-.52.28-.8.4A12.61,12.61,0,0,1,176,24.4l0-7.94a12.69,12.69,0,0,0,10.55.42A7.53,7.53,0,0,0,187.4,16.47Z"/></clipPath><clipPath id="clip-path-8" transform="translate(112.94 98.6)"><path class="cls-1" d="M201.53,29.29l0,7.94c0-2.32-1.51-4.64-4.57-6.41l0-7.94C200,24.65,201.54,27,201.53,29.29Z"/></clipPath><clipPath id="clip-path-9" transform="translate(112.94 98.6)"><path class="cls-1" d="M201.45,37.93l0-7.94a4.17,4.17,0,0,0,.05-.71l0,7.95A5.49,5.49,0,0,1,201.45,37.93Z"/></clipPath><clipPath id="clip-path-10" transform="translate(112.94 98.6)"><path class="cls-1" d="M201.45,37.93a6,6,0,0,1-1.07,2.63q0-4,0-7.94A6.1,6.1,0,0,0,201.48,30q0,3.11,0,6.2v1.1C201.45,37.51,201.47,37.72,201.45,37.93Z"/></clipPath><clipPath id="clip-path-11" transform="translate(112.94 98.6)"><path class="cls-1" d="M200.38,40.56a10.46,10.46,0,0,1-3.39,3l0-8a10.37,10.37,0,0,0,3.4-3Q200.41,36.58,200.38,40.56Z"/></clipPath><clipPath id="clip-path-12" transform="translate(112.94 98.6)"><path class="cls-1" d="M8.7,83.43c-3-1.77-4.58-4.09-4.57-6.4l0-8c0,2.32,1.52,4.64,4.57,6.41C8.72,77.87,8.71,81.05,8.7,83.43Z"/></clipPath><clipPath id="clip-path-13" transform="translate(112.94 98.6)"><path class="cls-2" d="M0,77.28l0-7.94c0,3,2,6.12,6.05,8.46l0,7.94C2,83.4,0,80.34,0,77.28Z"/></clipPath><clipPath id="clip-path-14" transform="translate(112.94 98.6)"><path class="cls-1" d="M79.41,103.73l0,8c-6,3.5-15.87,3.49-21.94,0l0-7.94C63.54,107.22,73.37,107.24,79.41,103.73Z"/></clipPath><clipPath id="clip-path-15" transform="translate(112.94 98.6)"><path class="cls-2" d="M205.66,29l0,7.94c0,3-2,6-6,8.34l0-7.94C203.66,35.07,205.65,32.05,205.66,29Z"/></clipPath><clipPath id="clip-path-16" transform="translate(112.94 98.6)"><path class="cls-2" d="M82.48,105.28l0,8c-8,4.63-21,4.61-29,0l0-7.94C61.5,109.89,74.49,109.91,82.48,105.28Z"/></clipPath><clipPath id="clip-path-17" transform="translate(112.94 98.6)"><path class="cls-3" d="M27.93,63.14V61.23a2.88,2.88,0,0,0,1.71,2.39v1.91A2.9,2.9,0,0,1,27.93,63.14Z"/></clipPath><clipPath id="clip-path-18" transform="translate(112.94 98.6)"><path class="cls-3" d="M85.57,87.83v1.91a2.86,2.86,0,0,1-1.68,2.36,9,9,0,0,1-8.21,0V90.19a9,9,0,0,0,8.21,0A2.86,2.86,0,0,0,85.57,87.83Z"/></clipPath></defs><title>Asset 1</title><g class="cls-4"><g id="Layer_2" data-name="Layer 2"><g id="OBJECTS"><circle class="cls-5" cx="224.19" cy="224.19" r="224.19"/><line class="cls-6" x1="112.23" y1="333.12" x2="238.59" y2="259.74"/><line class="cls-6" x1="235.72" y1="261.17" x2="362.07" y2="187.79"/><line class="cls-6" x1="222.53" y1="164.54" x2="348.89" y2="91.17"/><line class="cls-6" x1="78.98" y1="246.49" x2="180.06" y2="187.79"/><line class="cls-6" x1="101.7" y1="150.07" x2="231.73" y2="74.56"/><line class="cls-6" x1="257.37" y1="173.97" x2="320.65" y2="210.67"/><line class="cls-6" x1="132.65" y1="95.35" x2="195.92" y2="132.06"/><line class="cls-6" x1="61.13" y1="184.35" x2="124.4" y2="221.05"/><line class="cls-6" x1="164.28" y1="302.56" x2="214.9" y2="331.92"/><line class="cls-6" x1="280.07" y1="280.66" x2="343.34" y2="317.36"/><ellipse class="cls-7" cx="112.01" cy="189.93" rx="91.62" ry="52.9" transform="translate(111.91 99.21) rotate(-0.31)"/><ellipse class="cls-8" cx="114.52" cy="160.35" rx="57.78" ry="33.36" transform="translate(112.07 99.22) rotate(-0.31)"/><g class="cls-9"><path class="cls-8" d="M172.3,58.09V152.3c-.08,8.5-5.76,17-17,23.51C132.63,188.87,96,189,73.54,176c-11.27-6.51-16.87-15.07-16.79-23.65v-94A18.25,18.25,0,0,1,57.26,54c1.58-7.08,7.1-13.94,16.53-19.39C96.42,21.51,133,21.44,155.5,34.43,166.8,40.94,172.4,49.52,172.3,58.09Z" transform="translate(112.94 98.6)"/></g><g class="cls-4"><g class="cls-4"><g class="cls-10"><g class="cls-4"><path class="cls-11" d="M159.62,0l0,7.94-.4.24,0-7.94.4-.24" transform="translate(112.94 98.6)"/><path class="cls-12" d="M159.22.24l0,7.94a7.46,7.46,0,0,0-.63.42l0-7.94a5.94,5.94,0,0,1,.64-.42" transform="translate(112.94 98.6)"/></g></g></g><g class="cls-4"><g class="cls-13"><g class="cls-4"><path class="cls-14" d="M158.58.66l0,7.94a4.87,4.87,0,0,0-.42.35l0-7.95c.13-.11.27-.23.42-.34" transform="translate(112.94 98.6)"/><path class="cls-15" d="M158.16,1l0,8a4.93,4.93,0,0,0-.5.53l0-7.94a6,6,0,0,1,.49-.54" transform="translate(112.94 98.6)"/><path class="cls-16" d="M157.67,1.54l0,7.94a4.45,4.45,0,0,0-.32.48l0-7.94a3.73,3.73,0,0,1,.33-.48" transform="translate(112.94 98.6)"/><path class="cls-17" d="M157.34,2l0,7.94a3.82,3.82,0,0,0-.21.46l0-7.95a4.54,4.54,0,0,1,.21-.45" transform="translate(112.94 98.6)"/><path class="cls-18" d="M157.13,2.47l0,8a2.13,2.13,0,0,0-.13.45l0-7.95a2.54,2.54,0,0,1,.13-.45" transform="translate(112.94 98.6)"/><path class="cls-19" d="M157,2.92l0,8a3.4,3.4,0,0,0-.06.46l0-7.95a2.49,2.49,0,0,1,.05-.46" transform="translate(112.94 98.6)"/><path class="cls-20" d="M157,3.38l0,8v.07l0-7.95V3.38" transform="translate(112.94 98.6)"/></g></g></g><polygon class="cls-21" points="300.33 115.08 300.3 123.02 272.52 106.54 272.55 98.6 300.33 115.08"/><polygon class="cls-22" points="276.7 103.06 276.67 111 275.73 111.55 275.76 103.6 276.7 103.06"/><g class="cls-4"><g class="cls-23"><g class="cls-4"><path class="cls-21" d="M159.31,6.77l0,7.94c-1.58-.92-2.37-2.12-2.37-3.31l0-7.95c0,1.2.78,2.4,2.36,3.32" transform="translate(112.94 98.6)"/></g></g></g><polygon class="cls-21" points="288.34 109.8 288.31 117.74 276.67 111 276.7 103.06 288.34 109.8"/><polygon class="cls-24" points="287.4 110.34 287.37 118.28 275.73 111.55 275.76 103.6 287.4 110.34"/><polygon class="cls-25" points="288.34 109.8 288.31 117.74 287.37 118.28 287.4 110.34 288.34 109.8"/><g class="cls-4"><g class="cls-26"><g class="cls-4"><path class="cls-21" d="M179.84,13.78l0,7.94a.46.46,0,0,0-.28-.39l-.14-.07,0-7.94.14.06a.47.47,0,0,1,.28.4" transform="translate(112.94 98.6)"/><path class="cls-27" d="M179.42,13.32l0,7.94-.11,0,0-7.94.11,0" transform="translate(112.94 98.6)"/><path class="cls-27" d="M179.31,13.28l0,7.94-.1,0,0-7.95.1,0" transform="translate(112.94 98.6)"/><path class="cls-28" d="M179.21,13.25l0,8-.1,0,0-7.94h.1" transform="translate(112.94 98.6)"/><path class="cls-28" d="M179.11,13.24l0,7.94H179l0-7.94h.09" transform="translate(112.94 98.6)"/><path class="cls-24" d="M179,13.23l0,7.94h-.1l0-7.94H179" transform="translate(112.94 98.6)"/><path class="cls-24" d="M178.93,13.22l0,7.94h-.09l0-7.94h.1" transform="translate(112.94 98.6)"/><path class="cls-12" d="M178.83,13.22l0,7.94h-.11l0-7.94h.11" transform="translate(112.94 98.6)"/><path class="cls-12" d="M178.72,13.23l0,7.94-.12,0,0-7.94.12,0" transform="translate(112.94 98.6)"/><path class="cls-12" d="M178.6,13.25l0,7.94-.17,0,0-7.94.17,0" transform="translate(112.94 98.6)"/><path class="cls-11" d="M178.43,13.29l0,7.94a1.33,1.33,0,0,0-.21.09h0l0-7.95h0a.72.72,0,0,1,.2-.09" transform="translate(112.94 98.6)"/></g></g></g><g class="cls-4"><g class="cls-29"><g class="cls-4"><path class="cls-21" d="M179.84,13.78l0,7.94a.46.46,0,0,0-.28-.39l-.14-.07,0-7.94.14.06a.47.47,0,0,1,.28.4" transform="translate(112.94 98.6)"/></g></g></g><g class="cls-4"><g class="cls-30"><g class="cls-4"><polyline class="cls-12" points="292.78 112.38 292.74 120.32 292.74 120.33 292.78 112.38 292.78 112.38"/><path class="cls-11" d="M179.84,13.78l0,8a.11.11,0,0,1,0,.05l0-7.94a.13.13,0,0,0,0-.06" transform="translate(112.94 98.6)"/><path class="cls-22" d="M179.83,13.84l0,7.94a.43.43,0,0,1,0,0l0-7.94a.11.11,0,0,0,0-.05" transform="translate(112.94 98.6)"/><path class="cls-22" d="M179.82,13.89l0,7.94,0,.06,0-8,0,0" transform="translate(112.94 98.6)"/><path class="cls-31" d="M179.79,13.94l0,8,0,.05,0-7.94,0-.06" transform="translate(112.94 98.6)"/><path class="cls-31" d="M179.76,14l0,7.94-.05.06,0-7.94.06-.06" transform="translate(112.94 98.6)"/><path class="cls-32" d="M179.7,14.06l0,7.94-.12.09,0-7.94.12-.09" transform="translate(112.94 98.6)"/><path class="cls-33" d="M179.58,14.15l0,7.94h0a1.89,1.89,0,0,1-.21.09l0-7.94.21-.09h0" transform="translate(112.94 98.6)"/><path class="cls-32" d="M179.36,14.25l0,7.94-.18,0,0-7.94.18,0" transform="translate(112.94 98.6)"/><path class="cls-31" d="M179.18,14.29l0,7.94-.12,0,0-7.94.12,0" transform="translate(112.94 98.6)"/><path class="cls-31" d="M179.06,14.31l0,7.94h-.11l0-7.94h.1" transform="translate(112.94 98.6)"/><path class="cls-22" d="M179,14.32l0,7.94h-.09l0-7.94h.1" transform="translate(112.94 98.6)"/><path class="cls-22" d="M178.86,14.32l0,7.94h-.1l0-7.94h.09" transform="translate(112.94 98.6)"/><path class="cls-11" d="M178.77,14.31l0,7.94h-.09l0-7.94h.09" transform="translate(112.94 98.6)"/><path class="cls-12" d="M178.68,14.3l0,7.94h-.09l0-8,.1,0" transform="translate(112.94 98.6)"/><path class="cls-12" d="M178.58,14.28l0,8-.1,0,0-7.94.1,0" transform="translate(112.94 98.6)"/><path class="cls-24" d="M178.48,14.26l0,7.94-.11,0,0-7.94.11,0" transform="translate(112.94 98.6)"/><path class="cls-24" d="M178.37,14.22l0,7.94-.14-.06a.47.47,0,0,1-.28-.4l0-7.94a.46.46,0,0,0,.28.39l.14.07" transform="translate(112.94 98.6)"/></g></g></g><path class="cls-34" d="M159.62,0l28.11,16.28-.33.19a7.53,7.53,0,0,1-.8.41,12.69,12.69,0,0,1-10.55-.42L159.31,6.77c-2.88-1.67-3.13-4.29-.73-6.11.22-.16.45-.32.7-.47Zm14.84,11.74.94-.54L163.76,4.46l-.94.54,11.64,6.74m3.77,2.41a1.47,1.47,0,0,0,1.34,0,.41.41,0,0,0,0-.78,1.48,1.48,0,0,0-1.33,0,.41.41,0,0,0,0,.77" transform="translate(112.94 98.6)"/><path class="cls-8" d="M179.56,13.38a.41.41,0,0,1,0,.78,1.47,1.47,0,0,1-1.34,0,.41.41,0,0,1,0-.77A1.48,1.48,0,0,1,179.56,13.38Z" transform="translate(112.94 98.6)"/><polygon class="cls-22" points="300.67 114.88 300.64 122.82 300.3 123.02 300.33 115.08 300.67 114.88"/><polygon class="cls-21" points="288.99 115.06 288.95 123 272.21 113.31 272.25 105.37 288.99 115.06"/><g class="cls-4"><g class="cls-35"><g class="cls-4"><path class="cls-11" d="M187.4,16.47l0,8c-.26.14-.52.28-.8.4a9.86,9.86,0,0,1-1,.38l0-7.94a9.86,9.86,0,0,0,1-.38,7.53,7.53,0,0,0,.8-.41" transform="translate(112.94 98.6)"/><path class="cls-12" d="M185.6,17.26l0,7.94a13.52,13.52,0,0,1-1.49.37l0-7.95a11.42,11.42,0,0,0,1.48-.36" transform="translate(112.94 98.6)"/><path class="cls-12" d="M184.12,17.62l0,8c-.33.06-.67.1-1,.14l0-7.95c.35,0,.69-.08,1-.14" transform="translate(112.94 98.6)"/><path class="cls-12" d="M183.09,17.76l0,8c-.29,0-.59.05-.89.06l0-7.95c.3,0,.6,0,.89-.06" transform="translate(112.94 98.6)"/><path class="cls-24" d="M182.2,17.82l0,8c-.27,0-.55,0-.82,0l0-7.94h.82" transform="translate(112.94 98.6)"/><path class="cls-24" d="M181.38,17.83l0,7.94c-.26,0-.53,0-.79-.05l0-7.94.78,0" transform="translate(112.94 98.6)"/><path class="cls-28" d="M180.6,17.78l0,7.94-.78-.08,0-7.95q.38.06.78.09" transform="translate(112.94 98.6)"/><path class="cls-28" d="M179.82,17.69l0,8L179,25.5l0-7.94c.26.05.52.1.79.13" transform="translate(112.94 98.6)"/><path class="cls-27" d="M179,17.56l0,7.94q-.42-.09-.84-.21l0-7.94c.28.08.56.15.85.21" transform="translate(112.94 98.6)"/><path class="cls-27" d="M178.18,17.35l0,7.94c-.33-.1-.66-.21-1-.33l0-7.94c.31.12.64.23,1,.33" transform="translate(112.94 98.6)"/><path class="cls-21" d="M177.21,17l0,7.94A8.29,8.29,0,0,1,176,24.4l0-7.94a8.29,8.29,0,0,0,1.16.56" transform="translate(112.94 98.6)"/></g></g></g><polygon class="cls-21" points="309.9 121.48 309.87 129.42 299.5 123.42 299.54 115.48 309.9 121.48"/><g class="cls-4"><g class="cls-36"><g class="cls-4"><path class="cls-21" d="M201.53,29.29l0,7.94c0-2.32-1.51-4.64-4.57-6.41l0-7.94c3.06,1.77,4.58,4.09,4.57,6.41" transform="translate(112.94 98.6)"/></g></g></g><g class="cls-4"><g class="cls-37"><g class="cls-4"><path class="cls-20" d="M201.53,29.29l0,7.94v.13l0-7.94v-.13" transform="translate(112.94 98.6)"/><path class="cls-19" d="M201.53,29.42l0,7.94a5.27,5.27,0,0,1-.1.89l0-7.94a5.27,5.27,0,0,0,.1-.89" transform="translate(112.94 98.6)"/></g></g></g><g class="cls-4"><g class="cls-38"><g class="cls-4"><path class="cls-19" d="M201.53,29.42l0,7.94a5.27,5.27,0,0,1-.1.89l0-7.94a5.27,5.27,0,0,0,.1-.89" transform="translate(112.94 98.6)"/><path class="cls-18" d="M201.43,30.31l0,7.94a6.78,6.78,0,0,1-.25.88l0-8a5.38,5.38,0,0,0,.25-.87" transform="translate(112.94 98.6)"/><path class="cls-17" d="M201.18,31.18l0,8a7,7,0,0,1-.42.88l0-7.94a5.53,5.53,0,0,0,.42-.89" transform="translate(112.94 98.6)"/><path class="cls-16" d="M200.76,32.07l0,7.94a7.42,7.42,0,0,1-.62.92l0-7.94a6.46,6.46,0,0,0,.62-.92" transform="translate(112.94 98.6)"/></g></g></g><g class="cls-4"><g class="cls-39"><g class="cls-4"><path class="cls-16" d="M200.76,32.07l0,7.94a7.42,7.42,0,0,1-.62.92l0-7.94a6.46,6.46,0,0,0,.62-.92" transform="translate(112.94 98.6)"/><path class="cls-15" d="M200.14,33l0,7.94a8.49,8.49,0,0,1-1,1l0-7.95a9.17,9.17,0,0,0,1-1" transform="translate(112.94 98.6)"/><path class="cls-14" d="M199.18,34l0,7.95a12.46,12.46,0,0,1-2,1.45l0-8a12,12,0,0,0,2-1.45" transform="translate(112.94 98.6)"/><path class="cls-40" d="M197.21,35.47l0,8-.19.11,0-8a1.18,1.18,0,0,0,.19-.11" transform="translate(112.94 98.6)"/></g></g></g><g class="cls-4"><path class="cls-34" d="M148.23-5.34q-.55-.31-1.14-.6l-.4-.17-.7-.31a.32.32,0,0,1-.09,0c-.53-.21-1.09-.39-1.66-.56l-.13,0-.4-.09-1-.24a2.44,2.44,0,0,0-.26-.06l-.39-.07-.82-.15-.33,0-.36,0q-.39-.06-.78-.09l-.37,0-.34,0-.79,0-.4,0h-1.16c-.14,0-.28,0-.43,0h-.24L135-7.89l-.43,0-.12,0q-.9.09-1.77.24h-.08l-.5.11c-.29.06-.58.11-.86.18l-.61.16-.8.23-.17,0-.27.1c-.42.14-.83.3-1.22.46l-.44.19c-.51.23-1,.47-1.47.74L8.68,62.78a1.18,1.18,0,0,0-.19.11l-.4.27c-.19.12-.38.24-.56.37l-.43.34-.48.39-.1.08c-.2.19-.38.37-.55.56L5.86,65l-.3.35-.11.16q-.19.27-.36.54l-.16.23,0,.12a5.24,5.24,0,0,0-.23.48l-.13.28,0,.1c0,.15-.09.31-.13.46s-.07.21-.09.32v0a4.67,4.67,0,0,0-.11,1l0,7.94a5.24,5.24,0,0,1,.2-1.34,4.61,4.61,0,0,1,.13-.46,3.08,3.08,0,0,1,.16-.38,5.24,5.24,0,0,1,.23-.48,3.79,3.79,0,0,1,.2-.34c.12-.19.24-.37.37-.54s.26-.35.41-.52l.1-.11a6.68,6.68,0,0,1,.66-.64c.15-.14.31-.27.48-.4s.27-.23.43-.34.37-.25.56-.37.38-.26.59-.38L126.26,2.57c.47-.27,1-.51,1.46-.74l.45-.18c.39-.17.8-.32,1.21-.46l.45-.16.8-.22.61-.17.86-.18.58-.12c.58-.1,1.17-.18,1.76-.24l.55,0L136,0l.68,0c.28,0,.56,0,.85,0l.71,0,.78,0,.72.06c.26,0,.52.05.78.09l.69.1.82.14.64.13c.33.07.65.15,1,.24l.53.14c.57.17,1.12.36,1.66.57.27.1.53.22.79.33s.27.11.4.18c.39.18.77.38,1.13.59l10.36,6,0-7.94Z" transform="translate(112.94 98.6)"/><path class="cls-28" d="M4.27,68.06l0,7.94a5.28,5.28,0,0,0-.11.89l0-7.94a4.41,4.41,0,0,1,.1-.89" transform="translate(112.94 98.6)"/><path class="cls-28" d="M4.17,69l0,7.94V77l0-7.94a.57.57,0,0,1,0-.13" transform="translate(112.94 98.6)"/></g><g class="cls-4"><g class="cls-41"><g class="cls-4"><path class="cls-42" d="M8.73,75.49l0,7.94c-3-1.77-4.58-4.09-4.57-6.41l0-7.94c0,2.32,1.52,4.64,4.57,6.41" transform="translate(112.94 98.6)"/></g></g></g><path class="cls-2" d="M0,77.28l0-7.94c0,3,2,6.12,6.05,8.46l0,7.94C2,83.4,0,80.34,0,77.28Z" transform="translate(112.94 98.6)"/><g class="cls-43"><g class="cls-4"><path class="cls-44" d="M6.08,77.8l0,7.94C2,83.4,0,80.34,0,77.28l0-7.94c0,3,2,6.12,6.05,8.46" transform="translate(112.94 98.6)"/></g></g><polygon class="cls-45" points="309.96 134.18 309.93 142.13 192.31 210.28 192.34 202.33 309.96 134.18"/><polygon class="cls-46" points="170.41 202.31 170.37 210.25 121.64 182.03 121.67 174.09 170.41 202.31"/><g class="cls-4"><g class="cls-47"><g class="cls-4"><path class="cls-40" d="M79.41,103.73l0,8A18.12,18.12,0,0,1,76,113.17l0-8a17.41,17.41,0,0,0,3.4-1.49" transform="translate(112.94 98.6)"/><path class="cls-14" d="M76,105.22l0,8a22.8,22.8,0,0,1-2.93.72l0-7.94a21.41,21.41,0,0,0,2.94-.73" transform="translate(112.94 98.6)"/><path class="cls-15" d="M73.07,106l0,7.94c-.65.12-1.31.21-2,.28l0-7.94c.67-.07,1.33-.16,2-.28" transform="translate(112.94 98.6)"/><path class="cls-16" d="M71.09,106.23l0,7.94c-.57,0-1.15.09-1.72.11l0-7.94c.58,0,1.15-.06,1.72-.11" transform="translate(112.94 98.6)"/><path class="cls-17" d="M69.37,106.34l0,7.94c-.53,0-1.06,0-1.59,0l0-8c.53,0,1.06,0,1.59,0" transform="translate(112.94 98.6)"/><path class="cls-18" d="M67.78,106.34l0,8-1.53-.09,0-7.94c.51,0,1,.07,1.53.08" transform="translate(112.94 98.6)"/><path class="cls-19" d="M66.25,106.26l0,7.94c-.51,0-1-.1-1.51-.17l0-7.94c.5.07,1,.13,1.51.17" transform="translate(112.94 98.6)"/><path class="cls-20" d="M64.74,106.09l0,7.94c-.52-.07-1-.16-1.54-.27l0-7.94c.5.1,1,.19,1.53.27" transform="translate(112.94 98.6)"/><path class="cls-48" d="M63.21,105.82l0,7.94c-.54-.11-1.08-.25-1.61-.4l0-7.94c.53.15,1.07.28,1.62.4" transform="translate(112.94 98.6)"/><path class="cls-49" d="M61.59,105.42l0,7.94a16.79,16.79,0,0,1-1.89-.64l0-7.94a18,18,0,0,0,1.88.64" transform="translate(112.94 98.6)"/><path class="cls-42" d="M59.71,104.78l0,7.94a17.64,17.64,0,0,1-2.23-1.07l0-7.94a17.14,17.14,0,0,0,2.24,1.07" transform="translate(112.94 98.6)"/></g></g></g><path class="cls-34" d="M199.62,20.56c8,4.65,8.06,12.17.07,16.81L82.48,105.28c-8,4.63-21,4.61-29,0L6.08,77.8C-1.95,73.15-2,65.63,6,61L123.22-6.92c8-4.63,21-4.61,29,0ZM79.41,103.73,197,35.58c6-3.49,6-9.18-.06-12.7l-10.36-6a7.53,7.53,0,0,0,.8-.41L159.62,0a10.26,10.26,0,0,0-1,.66l-10.35-6c-6.08-3.52-15.9-3.53-21.94,0L8.68,62.78c-6,3.5-6,9.19.05,12.71l48.74,28.22c6.07,3.51,15.9,3.53,21.94,0" transform="translate(112.94 98.6)"/><polygon class="cls-8" points="288.34 109.8 287.4 110.34 275.76 103.6 276.7 103.06 288.34 109.8"/><path class="cls-2" d="M205.66,29l0,7.94c0,3-2,6-6,8.34l0-7.94C203.66,35.07,205.65,32.05,205.66,29Z" transform="translate(112.94 98.6)"/><g class="cls-50"><g class="cls-4"><path class="cls-2" d="M205.66,29l0,7.94v.18l0-7.94V29" transform="translate(112.94 98.6)"/><path class="cls-44" d="M205.66,29.21l0,7.94a7.76,7.76,0,0,1-.14,1.18l0-7.94a6.78,6.78,0,0,0,.14-1.18" transform="translate(112.94 98.6)"/><path class="cls-44" d="M205.52,30.39l0,7.94a8.41,8.41,0,0,1-.33,1.16l0-8a7.91,7.91,0,0,0,.33-1.15" transform="translate(112.94 98.6)"/><path class="cls-44" d="M205.19,31.54l0,8a8.15,8.15,0,0,1-.55,1.16l0-7.94a8.25,8.25,0,0,0,.55-1.17" transform="translate(112.94 98.6)"/><path class="cls-44" d="M204.64,32.71l0,7.94a10.22,10.22,0,0,1-.83,1.23l0-8a10,10,0,0,0,.82-1.22" transform="translate(112.94 98.6)"/><path class="cls-44" d="M203.82,33.93l0,8a12.28,12.28,0,0,1-1.27,1.36l0-7.94a11.63,11.63,0,0,0,1.28-1.37" transform="translate(112.94 98.6)"/><path class="cls-44" d="M202.54,35.3l0,7.94a15.93,15.93,0,0,1-2.6,1.92l0-7.94a15.51,15.51,0,0,0,2.6-1.92" transform="translate(112.94 98.6)"/><path class="cls-44" d="M199.94,37.22l0,7.94-.25.15,0-7.94.25-.15" transform="translate(112.94 98.6)"/></g></g><polygon class="cls-44" points="312.63 135.97 312.6 143.91 195.38 211.82 195.41 203.88 312.63 135.97"/><polygon class="cls-44" points="166.41 203.85 166.38 211.79 118.98 184.34 119.01 176.4 166.41 203.85"/><path class="cls-8" d="M197,22.88c6.08,3.52,6.1,9.21.06,12.7L79.41,103.73c-6,3.51-15.87,3.49-21.94,0L8.73,75.49C2.66,72,2.64,66.28,8.68,62.78L126.29-5.37c6-3.5,15.86-3.49,21.94,0l10.35,6c-2.4,1.82-2.15,4.44.73,6.11l16.74,9.69a12.69,12.69,0,0,0,10.55.42Z" transform="translate(112.94 98.6)"/><path class="cls-2" d="M82.48,105.28l0,8c-8,4.63-21,4.61-29,0l0-7.94C61.5,109.89,74.49,109.91,82.48,105.28Z" transform="translate(112.94 98.6)"/><g class="cls-51"><g class="cls-4"><path class="cls-44" d="M82.48,105.28l0,8a23.44,23.44,0,0,1-4.5,2l0-7.94a22.86,22.86,0,0,0,4.5-2" transform="translate(112.94 98.6)"/><path class="cls-44" d="M78,107.25l0,7.94a28.58,28.58,0,0,1-3.88,1l0-8a29.73,29.73,0,0,0,3.88-1" transform="translate(112.94 98.6)"/><path class="cls-44" d="M74.1,108.21l0,8c-.86.15-1.74.27-2.62.36l0-7.94c.88-.09,1.76-.21,2.62-.37" transform="translate(112.94 98.6)"/><path class="cls-44" d="M71.48,108.58l0,7.94q-1.12.11-2.28.15l0-8c.76,0,1.52-.07,2.27-.14" transform="translate(112.94 98.6)"/><path class="cls-44" d="M69.21,108.72l0,8q-1,0-2.1,0l0-7.94c.7,0,1.41,0,2.11,0" transform="translate(112.94 98.6)"/><path class="cls-44" d="M67.1,108.73l0,7.94c-.67,0-1.35,0-2-.11l0-7.94c.67.06,1.35.09,2,.11" transform="translate(112.94 98.6)"/><path class="cls-44" d="M65.08,108.62l0,7.94c-.67,0-1.33-.13-2-.22l0-8c.66.1,1.32.17,2,.23" transform="translate(112.94 98.6)"/><path class="cls-44" d="M63.09,108.39l0,8q-1-.15-2-.36l0-7.94c.67.14,1.35.26,2,.35" transform="translate(112.94 98.6)"/><path class="cls-44" d="M61.05,108,61,116c-.72-.15-1.44-.33-2.14-.53l0-7.94c.69.2,1.41.38,2.13.53" transform="translate(112.94 98.6)"/><path class="cls-44" d="M58.92,107.51l0,7.94a26,26,0,0,1-2.49-.84l0-7.94c.8.31,1.63.6,2.49.84" transform="translate(112.94 98.6)"/><path class="cls-44" d="M56.43,106.67l0,7.94a22.33,22.33,0,0,1-3-1.42l0-7.94a24.5,24.5,0,0,0,3,1.42" transform="translate(112.94 98.6)"/></g></g></g><g class="cls-4"><polygon class="cls-52" points="161.42 145.11 218.37 112.01 275.69 145.11 218.74 178.2 161.42 145.11"/></g><g class="cls-4"><path class="cls-3" d="M27.93,63.14V61.23a2.88,2.88,0,0,0,1.71,2.39v1.91A2.9,2.9,0,0,1,27.93,63.14Z" transform="translate(112.94 98.6)"/><g class="cls-53"><g class="cls-4"><path class="cls-54" d="M29.65,63.62v1.91a2.9,2.9,0,0,1-1.71-2.39V61.23a2.88,2.88,0,0,0,1.71,2.39" transform="translate(112.94 98.6)"/></g></g><polygon class="cls-54" points="188.61 188.79 188.6 190.71 142.58 164.13 142.58 162.22 188.61 188.79"/><path class="cls-3" d="M85.57,87.83v1.91a2.86,2.86,0,0,1-1.68,2.36,9,9,0,0,1-8.21,0V90.19a9,9,0,0,0,8.21,0A2.86,2.86,0,0,0,85.57,87.83Z" transform="translate(112.94 98.6)"/><g class="cls-55"><g class="cls-4"><path class="cls-3" d="M85.57,87.83v0" transform="translate(112.94 98.6)"/><path class="cls-54" d="M85.57,87.88V89.8a1.84,1.84,0,0,1,0,.33V88.22a2.09,2.09,0,0,0,0-.34" transform="translate(112.94 98.6)"/><path class="cls-54" d="M85.53,88.22v1.91a3,3,0,0,1-.1.32V88.54a2.23,2.23,0,0,0,.09-.32" transform="translate(112.94 98.6)"/><path class="cls-54" d="M85.44,88.54v1.91a1.66,1.66,0,0,1-.15.33V88.87a2.49,2.49,0,0,0,.16-.33" transform="translate(112.94 98.6)"/><path class="cls-54" d="M85.28,88.87v1.91a2.71,2.71,0,0,1-.24.35V89.22a1.92,1.92,0,0,0,.23-.35" transform="translate(112.94 98.6)"/><path class="cls-54" d="M85.05,89.22v1.91a3.2,3.2,0,0,1-.36.39V89.61a3.2,3.2,0,0,0,.36-.39" transform="translate(112.94 98.6)"/><path class="cls-54" d="M84.69,89.61v1.91a4.32,4.32,0,0,1-.73.54V90.15a4.42,4.42,0,0,0,.74-.54" transform="translate(112.94 98.6)"/><path class="cls-54" d="M84,90.15v1.91l-.07,0a6,6,0,0,1-1.27.56V90.75a6.11,6.11,0,0,0,1.27-.56l.07,0" transform="translate(112.94 98.6)"/><path class="cls-54" d="M82.61,90.75v1.91a8.44,8.44,0,0,1-1.1.28V91a7.7,7.7,0,0,0,1.1-.28" transform="translate(112.94 98.6)"/><path class="cls-54" d="M81.51,91v1.91c-.25,0-.5.08-.75.1V91.13l.74-.1" transform="translate(112.94 98.6)"/><path class="cls-54" d="M80.77,91.13V93c-.21,0-.42,0-.64,0V91.17l.64,0" transform="translate(112.94 98.6)"/><path class="cls-54" d="M80.13,91.17v1.91h-.59V91.17q.3,0,.6,0" transform="translate(112.94 98.6)"/><path class="cls-54" d="M79.53,91.17v1.92l-.58,0V91.14a5.44,5.44,0,0,0,.57,0" transform="translate(112.94 98.6)"/><path class="cls-54" d="M79,91.14v1.92L78.39,93V91.08a5.51,5.51,0,0,0,.57.06" transform="translate(112.94 98.6)"/><path class="cls-54" d="M78.39,91.08V93a5.86,5.86,0,0,1-.58-.1V91l.57.1" transform="translate(112.94 98.6)"/><path class="cls-54" d="M77.82,91v1.91l-.6-.14V90.83a6,6,0,0,0,.61.15" transform="translate(112.94 98.6)"/><path class="cls-54" d="M77.21,90.83v1.92c-.24-.07-.48-.15-.71-.24V90.59c.23.09.46.17.7.24" transform="translate(112.94 98.6)"/><path class="cls-54" d="M76.51,90.59v1.92a7.07,7.07,0,0,1-.83-.4V90.19a6.46,6.46,0,0,0,.84.4" transform="translate(112.94 98.6)"/></g></g><path class="cls-44" d="M83.86,85.44c2.27,1.31,2.28,3.44,0,4.75a9,9,0,0,1-8.21,0l-46-26.57c-2.28-1.31-2.29-3.44,0-4.75a9,9,0,0,1,8.21,0Z" transform="translate(112.94 98.6)"/></g><text class="cls-56" transform="matrix(0.53, 0.3, -0.8, 0.61, 147.46, 163.42)">S<tspan class="cls-57" x="7.93" y="0">C</tspan><tspan x="16.44" y="0">ANNING</tspan></text><polygon class="cls-52" points="250 255.96 248.24 256.92 246.53 255.86 248.29 254.9 250 255.96"/><polygon class="cls-52" points="220.52 252.03 218.75 252.98 217.04 251.92 218.81 250.97 220.52 252.03"/><g class="cls-4"><path class="cls-52" d="M115.16,129.46l10.44,6.47-10.75,5.81-10.45-6.47Zm-.27,10.41,7.47-4-7.26-4.49-7.46,4,7.25,4.5" transform="translate(112.94 98.6)"/><polygon class="cls-52" points="232 234.33 227.88 236.56 223.88 234.08 228 231.85 232 234.33"/><polygon class="cls-52" points="224.31 240.05 222.54 241 220.83 239.94 222.59 238.99 224.31 240.05"/><polygon class="cls-52" points="248.66 240.8 250.37 241.86 248.6 242.81 246.89 241.75 245.13 242.71 243.36 243.66 241.65 242.6 239.88 243.55 241.59 244.61 239.83 245.57 238.12 244.51 236.4 243.44 234.64 244.4 232.87 245.35 234.59 246.41 232.83 247.37 231.11 246.3 229.4 245.24 227.69 244.18 225.97 243.12 227.74 242.17 229.5 241.22 231.22 242.28 232.98 241.32 234.69 242.38 236.45 241.43 234.74 240.37 236.51 239.41 234.8 238.35 236.56 237.4 238.32 236.45 240.09 235.49 241.8 236.55 240.04 237.51 238.27 238.46 239.99 239.52 241.7 240.58 243.46 239.63 245.18 240.69 246.94 239.74 248.66 240.8"/><polygon class="cls-52" points="229.4 245.24 227.63 246.2 225.87 247.15 224.1 248.1 222.39 247.04 220.68 245.99 218.96 244.92 217.25 243.86 219.01 242.91 217.3 241.85 215.58 240.78 217.35 239.83 215.63 238.77 213.92 237.71 212.16 238.66 210.44 237.6 212.21 236.65 213.97 235.69 215.69 236.75 217.4 237.81 219.12 238.88 220.83 239.94 222.54 241 224.26 242.06 225.97 243.12 227.69 244.18 229.4 245.24"/><polygon class="cls-52" points="257.23 246.11 258.94 247.17 257.17 248.12 255.41 249.07 253.64 250.03 251.93 248.97 250.16 249.92 251.88 250.98 250.11 251.94 248.4 250.88 246.64 251.83 244.87 252.78 246.58 253.84 244.82 254.8 243.11 253.74 241.39 252.67 239.68 251.61 241.44 250.66 239.73 249.6 237.97 250.55 236.25 249.49 234.54 248.43 236.3 247.47 234.59 246.41 236.36 245.46 238.07 246.52 239.83 245.57 241.54 246.63 239.78 247.58 241.5 248.64 243.21 249.7 244.97 248.75 246.74 247.8 248.45 248.86 250.22 247.9 248.5 246.84 246.79 245.78 245.02 246.74 243.26 247.69 241.54 246.63 243.31 245.68 241.59 244.61 243.36 243.66 245.07 244.72 246.84 243.77 248.55 244.83 250.32 243.88 252.09 242.92 253.8 243.98 255.51 245.04 253.74 246 251.98 246.95 253.69 248.01 255.46 247.06 257.23 246.11"/><polygon class="cls-52" points="223.95 254.15 222.18 255.11 220.47 254.05 222.24 253.09 223.95 254.15"/><polygon class="cls-52" points="210.29 243.65 208.53 244.6 206.76 245.55 208.48 246.62 206.71 247.57 208.43 248.63 210.19 247.68 211.9 248.74 213.67 247.78 215.38 248.85 217.1 249.91 215.33 250.86 213.62 249.8 211.85 250.75 213.56 251.81 215.33 250.86 217.04 251.92 215.28 252.88 216.99 253.94 218.75 252.98 220.47 254.05 218.71 255 216.94 255.95 215.23 254.89 213.51 253.83 211.8 252.77 210.04 253.72 208.33 252.66 210.09 251.71 208.37 250.64 206.66 249.58 204.9 250.54 203.19 249.47 201.47 248.41 203.23 247.46 201.52 246.4 199.81 245.34 198.05 246.29 196.33 245.23 198.09 244.28 199.85 243.32 201.62 242.37 203.34 243.43 205.05 244.49 206.81 243.54 208.58 242.59 210.29 243.65"/><polygon class="cls-52" points="255.15 259.15 253.38 260.1 251.67 259.04 253.43 258.09 255.15 259.15"/><path class="cls-52" d="M147.56,149.53,158,156l-10.76,5.82-10.45-6.48Zm-.26,10.41,7.46-4-7.25-4.49-7.47,4,7.26,4.5" transform="translate(112.94 98.6)"/><path class="cls-52" d="M81.8,147.49,92.25,154l-10.76,5.81L71,153.31Zm-.26,10.41,7.47-4-7.26-4.49-7.47,4,7.26,4.49" transform="translate(112.94 98.6)"/><polygon class="cls-52" points="258.57 261.27 256.81 262.23 255.1 261.17 256.86 260.21 258.57 261.27"/><polygon class="cls-52" points="232.41 263.49 230.65 264.44 228.94 263.38 227.22 262.32 228.99 261.37 230.7 262.43 232.41 263.49"/><polygon class="cls-52" points="237.97 250.55 236.2 251.51 237.91 252.57 239.62 253.63 237.86 254.58 236.1 255.53 234.33 256.49 232.62 255.43 230.85 256.38 232.56 257.44 234.33 256.49 236.04 257.55 234.28 258.51 232.52 259.46 230.75 260.41 229.03 259.35 227.27 260.3 225.51 261.26 223.75 262.21 221.98 263.16 220.21 264.12 218.5 263.06 220.26 262.1 218.55 261.04 220.32 260.09 218.6 259.02 216.89 257.96 215.18 256.9 216.94 255.95 218.66 257.01 220.42 256.06 222.13 257.12 223.85 258.18 222.08 259.13 223.8 260.2 225.56 259.24 227.32 258.29 225.61 257.23 227.38 256.27 229.14 255.32 227.42 254.26 225.71 253.2 224 252.14 222.24 253.09 220.52 252.03 222.28 251.07 220.57 250.01 218.81 250.97 217.1 249.91 218.86 248.95 217.15 247.89 215.43 246.83 213.67 247.78 211.96 246.72 210.19 247.68 208.48 246.62 210.24 245.66 212.01 244.71 210.29 243.65 212.05 242.69 210.34 241.63 208.63 240.57 206.87 241.53 205.15 240.46 206.91 239.51 208.68 238.55 210.4 239.62 212.16 238.66 213.87 239.72 215.58 240.78 213.82 241.74 215.54 242.8 217.25 243.86 215.48 244.82 217.19 245.88 218.91 246.94 220.62 248 222.33 249.06 224.05 250.12 225.76 251.19 227.47 252.25 229.24 251.29 230.96 252.35 232.72 251.4 234.48 250.44 236.25 249.49 237.97 250.55"/><polygon class="cls-52" points="213.46 255.84 211.69 256.8 209.93 257.75 208.17 258.7 206.4 259.66 204.64 260.61 206.36 261.67 204.59 262.63 202.82 263.58 201.11 262.52 202.88 261.56 201.16 260.5 202.93 259.55 201.22 258.49 199.45 259.44 197.68 260.4 195.97 259.34 197.74 258.38 199.5 257.43 201.27 256.48 203.03 255.52 204.75 256.58 206.51 255.63 204.8 254.57 206.56 253.62 208.27 254.68 210.04 253.72 211.75 254.78 213.46 255.84"/><polygon class="cls-52" points="256.81 262.23 255.04 263.18 253.33 262.12 251.62 261.06 249.9 260 248.19 258.94 246.47 257.87 244.71 258.83 242.95 259.78 241.18 260.73 239.42 261.69 237.71 260.63 235.94 261.58 237.66 262.64 239.37 263.7 241.08 264.76 242.85 263.81 244.61 262.86 242.9 261.8 244.67 260.84 246.38 261.9 248.09 262.96 249.81 264.03 251.52 265.09 249.75 266.04 248.04 264.98 246.32 263.92 244.56 264.87 242.79 265.82 241.03 266.78 239.31 265.72 237.55 266.67 235.84 265.61 234.12 264.55 235.89 263.6 234.17 262.54 232.46 261.48 234.23 260.52 235.99 259.57 237.76 258.61 239.53 257.66 241.24 258.72 243 257.76 241.29 256.7 239.53 257.66 237.81 256.6 239.58 255.65 241.34 254.69 243.11 253.74 244.82 254.8 246.53 255.86 248.24 256.92 249.96 257.98 251.67 259.04 253.38 260.1 255.1 261.17 256.81 262.23"/><polygon class="cls-52" points="235.84 265.61 234.08 266.56 232.36 265.5 234.12 264.55 235.84 265.61"/><polygon class="cls-52" points="216.74 264.01 214.97 264.96 213.21 265.92 211.5 264.86 213.26 263.9 215.03 262.95 213.31 261.89 211.54 262.84 209.78 263.79 208.02 264.75 206.25 265.7 204.54 264.64 206.3 263.69 208.07 262.73 209.83 261.78 208.12 260.72 209.89 259.76 211.65 258.81 213.36 259.87 215.12 258.92 216.84 259.98 218.55 261.04 216.79 262 218.5 263.06 216.74 264.01"/><polygon class="cls-52" points="225.35 267.3 223.64 266.24 225.41 265.29 227.12 266.35 225.35 267.3"/><polygon class="cls-52" points="227.02 270.38 228.73 271.44 226.96 272.39 225.25 271.33 223.53 270.27 225.3 269.31 223.59 268.25 221.82 269.21 220.06 270.16 218.3 271.12 216.59 270.06 214.87 269 213.11 269.95 211.39 268.89 213.16 267.93 211.44 266.87 213.21 265.92 214.92 266.98 216.68 266.03 218.4 267.09 216.64 268.04 218.35 269.1 220.11 268.15 221.88 267.19 220.17 266.13 218.45 265.07 220.21 264.12 221.93 265.18 223.69 264.23 225.46 263.27 227.17 264.33 228.89 265.39 230.6 266.45 228.83 267.41 230.55 268.47 228.78 269.43 227.02 270.38"/><polygon class="cls-52" points="247.99 267 246.22 267.95 244.46 268.9 242.69 269.86 240.93 270.81 239.22 269.75 237.46 270.7 235.69 271.66 233.93 272.61 232.16 273.56 230.39 274.52 228.63 275.47 226.87 276.42 228.58 277.48 226.81 278.44 225.1 277.38 223.38 276.31 225.15 275.36 223.44 274.3 225.2 273.35 226.96 272.39 228.68 273.45 230.44 272.5 228.73 271.44 230.5 270.49 232.21 271.55 233.97 270.59 232.26 269.53 234.03 268.58 232.31 267.52 234.08 266.56 235.79 267.62 237.5 268.69 239.26 267.73 240.98 268.8 242.74 267.84 244.51 266.89 246.28 265.94 247.99 267"/></g><polygon class="cls-52" points="264.39 254.4 260.28 256.63 256.28 254.15 260.39 251.92 264.39 254.4"/><polygon class="cls-52" points="198.65 252.36 194.52 254.59 190.52 252.12 194.65 249.89 198.65 252.36"/><polygon class="cls-52" points="245.23 238.67 243.46 239.63 241.75 238.57 243.52 237.61 245.23 238.67"/><polygon class="cls-52" points="233.03 239.31 234.74 240.37 232.98 241.32 231.27 240.26 233.03 239.31"/><polygon class="cls-52" points="232.77 249.38 231.01 250.34 229.24 251.29 227.53 250.23 229.29 249.28 231.06 248.32 232.77 249.38"/><polygon class="cls-52" points="220.88 237.92 219.12 238.88 217.4 237.81 219.17 236.86 220.88 237.92"/><polygon class="cls-52" points="217.45 235.8 215.69 236.75 213.97 235.69 215.74 234.74 217.45 235.8"/><polygon class="cls-52" points="207.97 266.77 209.73 265.81 211.44 266.87 209.68 267.83 207.97 266.77"/><polygon class="cls-8" points="243.04 146.1 241.15 147.19 239.25 146.1 241.14 145 243.04 146.1"/><polygon class="cls-8" points="210.84 142.81 208.95 143.91 207.06 142.81 208.94 141.72 210.84 142.81"/><g class="cls-4"><path class="cls-8" d="M105.33,17.9l11.58,6.68-11.5,6.68L93.83,24.58Zm.07,11.32,8-4.64-8-4.64-8,4.64,8,4.64" transform="translate(112.94 98.6)"/><polygon class="cls-8" points="222.73 123.18 218.32 125.74 213.89 123.18 218.29 120.63 222.73 123.18"/><polygon class="cls-8" points="214.56 129.66 212.67 130.75 210.78 129.66 212.66 128.56 214.56 129.66"/><polygon class="cls-8" points="241.06 129.65 242.96 130.75 241.06 131.85 239.17 130.75 237.28 131.85 235.4 132.94 233.5 131.85 231.61 132.95 233.51 134.04 231.62 135.14 229.73 134.04 227.82 132.94 225.94 134.04 224.05 135.14 225.95 136.24 224.07 137.33 222.16 136.23 220.27 135.14 218.37 134.04 216.47 132.95 218.36 131.85 220.25 130.75 222.14 131.85 224.03 130.75 225.93 131.85 227.81 130.75 225.91 129.66 227.8 128.56 225.91 127.46 227.79 126.37 229.68 125.27 231.57 124.17 233.46 125.27 231.57 126.37 229.69 127.46 231.59 128.56 233.48 129.65 235.37 128.56 237.27 129.66 239.16 128.56 241.06 129.65"/><polygon class="cls-8" points="220.27 135.14 218.38 136.24 216.49 137.33 214.61 138.43 212.71 137.33 210.81 136.24 208.91 135.14 207.01 134.04 208.9 132.95 207 131.85 205.1 130.75 206.98 129.66 205.08 128.56 203.19 127.47 201.3 128.56 199.4 127.46 201.28 126.37 203.17 125.27 205.08 126.37 206.97 127.46 208.87 128.56 210.78 129.66 212.67 130.75 214.57 131.85 216.47 132.95 218.37 134.04 220.27 135.14"/><polygon class="cls-8" points="250.56 135.14 252.45 136.23 250.56 137.33 248.68 138.43 246.79 139.52 244.9 138.43 243 139.53 244.9 140.62 243.02 141.72 241.12 140.62 239.24 141.72 237.34 142.81 239.24 143.91 237.36 145 235.46 143.91 233.56 142.81 231.66 141.72 233.54 140.62 231.65 139.53 229.76 140.62 227.86 139.52 225.96 138.43 227.85 137.33 225.95 136.24 227.84 135.14 229.74 136.23 231.62 135.14 233.52 136.23 231.63 137.33 233.54 138.43 235.44 139.52 237.32 138.43 239.21 137.33 241.1 138.43 242.99 137.33 241.1 136.23 239.2 135.14 237.31 136.24 235.42 137.33 233.52 136.23 235.41 135.14 233.51 134.04 235.4 132.94 237.29 134.04 239.18 132.94 241.08 134.04 242.97 132.95 244.86 131.85 246.76 132.94 248.65 134.04 246.76 135.14 244.88 136.23 246.78 137.33 248.66 136.24 250.56 135.14"/><polygon class="cls-8" points="214.64 145 212.75 146.1 210.85 145.01 212.75 143.91 214.64 145"/><polygon class="cls-8" points="199.44 134.04 197.55 135.14 195.66 136.24 197.56 137.34 195.68 138.43 197.58 139.53 199.46 138.43 201.36 139.53 203.25 138.43 205.15 139.53 207.05 140.62 205.16 141.72 203.26 140.62 201.38 141.72 203.27 142.81 205.16 141.72 207.06 142.81 205.17 143.91 207.07 145 208.95 143.91 210.85 145.01 208.97 146.1 207.09 147.2 205.18 146.1 203.28 145 201.39 143.91 199.5 145 197.61 143.91 199.49 142.81 197.59 141.72 195.69 140.62 193.81 141.72 191.91 140.62 190.01 139.52 191.89 138.43 189.99 137.33 188.1 136.24 186.21 137.33 184.31 136.23 186.19 135.14 188.08 134.04 189.96 132.95 191.87 134.05 193.76 135.14 195.65 134.04 197.54 132.95 199.44 134.04"/><polygon class="cls-8" points="248.73 149.39 246.85 150.49 244.95 149.39 246.84 148.29 248.73 149.39"/><path class="cls-8" d="M141.24,38.63l11.58,6.68L141.32,52l-11.58-6.69ZM141.31,50l8-4.63-8-4.64-8,4.63,8,4.64" transform="translate(112.94 98.6)"/><path class="cls-8" d="M69.67,38.63l11.58,6.68L69.75,52,58.17,45.31ZM69.73,50l8-4.64-8-4.64-8,4.64,8,4.64" transform="translate(112.94 98.6)"/><polygon class="cls-8" points="252.53 151.58 250.65 152.68 248.75 151.58 250.64 150.49 252.53 151.58"/><polygon class="cls-8" points="224.16 154.87 222.27 155.97 220.38 154.87 218.48 153.78 220.36 152.68 222.26 153.78 224.16 154.87"/><polygon class="cls-8" points="229.76 140.62 227.87 141.72 229.77 142.81 231.67 143.91 229.78 145 227.9 146.1 226.01 147.2 224.11 146.1 222.22 147.2 224.12 148.29 226.01 147.2 227.91 148.3 226.03 149.39 224.14 150.49 222.25 151.59 220.35 150.49 218.46 151.58 216.58 152.68 214.69 153.77 212.8 154.87 210.92 155.97 209.02 154.87 210.9 153.78 209.01 152.68 210.9 151.58 209 150.49 207.1 149.39 205.2 148.29 207.09 147.2 208.98 148.29 210.87 147.2 212.76 148.29 214.67 149.39 212.78 150.49 214.68 151.58 216.56 150.49 218.45 149.39 216.55 148.3 218.44 147.2 220.33 146.1 218.42 145 216.53 143.91 214.63 142.81 212.75 143.91 210.84 142.81 212.73 141.72 210.83 140.62 208.94 141.72 207.05 140.62 208.93 139.53 207.04 138.43 205.13 137.33 203.25 138.43 201.35 137.33 199.46 138.43 197.56 137.34 199.45 136.24 201.34 135.14 199.44 134.04 201.32 132.95 199.42 131.85 197.53 130.76 195.64 131.85 193.74 130.75 195.62 129.66 197.51 128.56 199.42 129.66 201.3 128.56 203.2 129.66 205.1 130.75 203.21 131.85 205.11 132.95 207.01 134.04 205.12 135.14 207.02 136.24 208.92 137.34 210.82 138.43 212.72 139.53 214.61 140.62 216.51 141.72 218.41 142.81 220.3 141.72 222.2 142.81 224.08 141.72 225.97 140.62 227.86 139.52 229.76 140.62"/><polygon class="cls-8" points="203.3 147.2 201.41 148.29 199.52 149.39 197.64 150.49 195.75 151.58 193.86 152.68 195.76 153.78 193.88 154.87 191.99 155.97 190.09 154.87 191.98 153.77 190.08 152.68 191.97 151.58 190.07 150.49 188.18 151.58 186.29 152.68 184.4 151.59 186.29 150.49 188.17 149.39 190.06 148.3 191.95 147.2 193.84 148.29 195.73 147.2 193.83 146.1 195.72 145.01 197.61 146.1 199.5 145 201.4 146.1 203.3 147.2"/><polygon class="cls-8" points="250.65 152.68 248.76 153.78 246.86 152.68 244.96 151.58 243.06 150.49 241.16 149.39 239.26 148.29 237.38 149.39 235.49 150.49 233.6 151.58 231.72 152.68 229.82 151.58 227.93 152.68 229.83 153.77 231.73 154.87 233.63 155.97 235.52 154.87 237.4 153.78 235.5 152.68 237.39 151.58 239.29 152.68 241.19 153.77 243.09 154.87 244.99 155.97 243.1 157.07 241.2 155.97 239.3 154.87 237.41 155.97 235.53 157.06 233.64 158.16 231.74 157.07 229.86 158.16 227.96 157.07 226.06 155.97 227.94 154.87 226.04 153.78 224.15 152.68 226.04 151.58 227.92 150.49 229.81 149.39 231.7 148.29 233.59 149.39 235.48 148.29 233.58 147.2 231.7 148.29 229.8 147.2 231.69 146.1 233.57 145.01 235.46 143.91 237.36 145 239.25 146.1 241.15 147.19 243.05 148.29 244.95 149.39 246.85 150.49 248.75 151.58 250.65 152.68"/><polygon class="cls-8" points="227.96 157.07 226.07 158.16 224.17 157.06 226.06 155.97 227.96 157.07"/><polygon class="cls-8" points="207.13 155.97 205.24 157.07 203.36 158.16 201.46 157.07 203.35 155.97 205.24 154.87 203.34 153.77 201.44 154.87 199.56 155.97 197.68 157.06 195.78 158.16 193.89 157.07 195.78 155.97 197.66 154.87 199.55 153.78 197.65 152.68 199.54 151.58 201.43 150.49 203.32 151.58 205.21 150.49 207.1 151.58 209.01 152.68 207.12 153.78 209.02 154.87 207.13 155.97"/><polygon class="cls-8" points="216.61 159.26 214.72 158.16 216.6 157.07 218.5 158.16 216.61 159.26"/><polygon class="cls-8" points="218.53 162.55 220.43 163.64 218.53 164.74 216.64 163.65 214.74 162.55 216.63 161.45 214.73 160.35 212.84 161.45 210.95 162.55 209.07 163.64 207.17 162.55 205.28 161.45 203.38 162.55 201.48 161.45 203.37 160.35 201.47 159.26 203.36 158.16 205.26 159.26 207.14 158.16 209.04 159.26 207.16 160.36 209.06 161.45 210.94 160.36 212.83 159.26 210.94 158.16 209.03 157.06 210.92 155.97 212.82 157.07 214.7 155.97 216.59 154.87 218.49 155.97 220.39 157.06 222.29 158.16 220.4 159.26 222.3 160.36 220.41 161.45 218.53 162.55"/><polygon class="cls-8" points="241.21 158.16 239.33 159.26 237.44 160.36 235.55 161.45 233.67 162.55 231.77 161.45 229.89 162.55 228 163.65 226.11 164.74 224.23 165.84 222.34 166.94 220.45 168.03 218.57 169.13 220.46 170.22 218.57 171.32 216.68 170.22 214.77 169.13 216.66 168.03 214.77 166.93 216.65 165.84 218.53 164.74 220.43 165.84 222.32 164.74 220.43 163.64 222.31 162.55 224.21 163.64 226.09 162.55 224.2 161.45 226.09 160.35 224.19 159.26 226.07 158.16 227.97 159.26 229.87 160.35 231.75 159.26 233.66 160.36 235.54 159.26 237.43 158.16 239.32 157.07 241.21 158.16"/></g><polygon class="cls-8" points="258.63 143.91 254.23 146.47 249.79 143.91 254.2 141.35 258.63 143.91"/><polygon class="cls-8" points="187.07 143.91 182.66 146.48 178.22 143.92 182.63 141.35 187.07 143.91"/><polygon class="cls-8" points="237.26 127.46 235.37 128.56 233.47 127.46 235.36 126.36 237.26 127.46"/><polygon class="cls-8" points="224.02 128.56 225.91 129.66 224.03 130.75 222.13 129.66 224.02 128.56"/><polygon class="cls-8" points="224.07 139.53 222.19 140.62 220.3 141.72 218.41 140.62 220.29 139.53 222.18 138.43 224.07 139.53"/><polygon class="cls-8" points="210.76 127.46 208.87 128.56 206.97 127.46 208.86 126.37 210.76 127.46"/><polygon class="cls-8" points="206.96 125.27 205.08 126.37 203.17 125.27 205.06 124.17 206.96 125.27"/><polygon class="cls-8" points="197.69 159.26 199.58 158.16 201.47 159.26 199.58 160.36 197.69 159.26"/></g></g></g></svg>